G04*
G04 #@! TF.GenerationSoftware,Altium Limited,Altium Designer,21.0.9 (235)*
G04*
G04 Layer_Color=2752767*
%FSTAX24Y24*%
%MOIN*%
G70*
G04*
G04 #@! TF.SameCoordinates,F3794B47-591B-43CD-9A24-B45F9C40A272*
G04*
G04*
G04 #@! TF.FilePolarity,Positive*
G04*
G01*
G75*
%ADD85C,0.0020*%
%ADD86C,0.0027*%
D85*
X016268Y023274D02*
Y023434D01*
X016428D01*
Y023274D01*
X016268D01*
Y019873D02*
Y020033D01*
X016428D01*
Y019873D01*
X016268D01*
X017764D02*
Y020033D01*
X017924D01*
Y019873D01*
X017764D01*
Y023274D02*
Y023434D01*
X017924D01*
Y023274D01*
X017764D01*
X024449Y021574D02*
X024369Y021734D01*
X024529D01*
X024449Y021574D01*
X02122D02*
X02114Y021734D01*
X0213D01*
X02122Y021574D01*
X027953D02*
X027993Y021614D01*
X028033D01*
X027993Y021654D01*
X028033Y021694D01*
X027993D01*
X027953Y021734D01*
X027913Y021694D01*
X027873D01*
X027913Y021654D01*
X027873Y021614D01*
X027913D01*
X027953Y021574D01*
X02829Y018188D02*
X02833Y018268D01*
X02829Y018348D01*
X02837Y018308D01*
X02845Y018348D01*
X02841Y018268D01*
X02845Y018188D01*
X02837Y018228D01*
X02829Y018188D01*
X02929D02*
X02933Y018268D01*
X02929Y018348D01*
X02937Y018308D01*
X02945Y018348D01*
X02941Y018268D01*
X02945Y018188D01*
X02937Y018228D01*
X02929Y018188D01*
X03029D02*
X03033Y018268D01*
X03029Y018348D01*
X03037Y018308D01*
X03045Y018348D01*
X03041Y018268D01*
X03045Y018188D01*
X03037Y018228D01*
X03029Y018188D01*
X03129D02*
X03133Y018268D01*
X03129Y018348D01*
X03137Y018308D01*
X03145Y018348D01*
X03141Y018268D01*
X03145Y018188D01*
X03137Y018228D01*
X03129Y018188D01*
X016929Y018818D02*
X016969Y018858D01*
X017009D01*
X016969Y018898D01*
X017009Y018938D01*
X016969D01*
X016929Y018978D01*
X016889Y018938D01*
X016849D01*
X016889Y018898D01*
X016849Y018858D01*
X016889D01*
X016929Y018818D01*
Y024329D02*
X016969Y024369D01*
X017009D01*
X016969Y024409D01*
X017009Y024449D01*
X016969D01*
X016929Y024489D01*
X016889Y024449D01*
X016849D01*
X016889Y024409D01*
X016849Y024369D01*
X016889D01*
X016929Y024329D01*
X020378Y021877D02*
Y021837D01*
X020458D01*
Y021877D01*
X020498D01*
Y021957D01*
X020458D01*
Y021997D01*
X020378D01*
Y021957D01*
X020338D01*
Y021877D01*
X020378D01*
X019488D02*
Y021837D01*
X019568D01*
Y021877D01*
X019608D01*
Y021957D01*
X019568D01*
Y021997D01*
X019488D01*
Y021957D01*
X019448D01*
Y021877D01*
X019488D01*
X019478Y020137D02*
Y020097D01*
X019558D01*
Y020137D01*
X019598D01*
Y020217D01*
X019558D01*
Y020257D01*
X019478D01*
Y020217D01*
X019438D01*
Y020137D01*
X019478D01*
X019118Y020467D02*
Y020427D01*
X019198D01*
Y020467D01*
X019238D01*
Y020547D01*
X019198D01*
Y020587D01*
X019118D01*
Y020547D01*
X019078D01*
Y020467D01*
X019118D01*
X019688Y018787D02*
Y018747D01*
X019768D01*
Y018787D01*
X019808D01*
Y018867D01*
X019768D01*
Y018907D01*
X019688D01*
Y018867D01*
X019648D01*
Y018787D01*
X019688D01*
X021692Y022401D02*
Y022361D01*
X021772D01*
Y022401D01*
X021812D01*
Y022481D01*
X021772D01*
Y022521D01*
X021692D01*
Y022481D01*
X021652D01*
Y022401D01*
X021692D01*
X020944D02*
Y022361D01*
X021024D01*
Y022401D01*
X021064D01*
Y022481D01*
X021024D01*
Y022521D01*
X020944D01*
Y022481D01*
X020904D01*
Y022401D01*
X020944D01*
X017913Y024015D02*
Y023975D01*
X017993D01*
Y024015D01*
X018033D01*
Y024095D01*
X017993D01*
Y024135D01*
X017913D01*
Y024095D01*
X017873D01*
Y024015D01*
X017913D01*
X017952Y024566D02*
Y024526D01*
X018032D01*
Y024566D01*
X018072D01*
Y024646D01*
X018032D01*
Y024686D01*
X017952D01*
Y024646D01*
X017912D01*
Y024566D01*
X017952D01*
X018385Y024999D02*
Y024959D01*
X018465D01*
Y024999D01*
X018505D01*
Y025079D01*
X018465D01*
Y025119D01*
X018385D01*
Y025079D01*
X018345D01*
Y024999D01*
X018385D01*
X018976Y025078D02*
Y025038D01*
X019056D01*
Y025078D01*
X019096D01*
Y025158D01*
X019056D01*
Y025198D01*
X018976D01*
Y025158D01*
X018936D01*
Y025078D01*
X018976D01*
X02307Y024448D02*
Y024408D01*
X02315D01*
Y024448D01*
X02319D01*
Y024528D01*
X02315D01*
Y024568D01*
X02307D01*
Y024528D01*
X02303D01*
Y024448D01*
X02307D01*
X023346Y025078D02*
Y025038D01*
X023426D01*
Y025078D01*
X023466D01*
Y025158D01*
X023426D01*
Y025198D01*
X023346D01*
Y025158D01*
X023306D01*
Y025078D01*
X023346D01*
X022834D02*
Y025038D01*
X022914D01*
Y025078D01*
X022954D01*
Y025158D01*
X022914D01*
Y025198D01*
X022834D01*
Y025158D01*
X022794D01*
Y025078D01*
X022834D01*
X022322D02*
Y025038D01*
X022402D01*
Y025078D01*
X022442D01*
Y025158D01*
X022402D01*
Y025198D01*
X022322D01*
Y025158D01*
X022282D01*
Y025078D01*
X022322D01*
X018976Y02244D02*
Y0224D01*
X019056D01*
Y02244D01*
X019096D01*
Y02252D01*
X019056D01*
Y02256D01*
X018976D01*
Y02252D01*
X018936D01*
Y02244D01*
X018976D01*
X018858Y022834D02*
Y022794D01*
X018938D01*
Y022834D01*
X018978D01*
Y022914D01*
X018938D01*
Y022954D01*
X018858D01*
Y022914D01*
X018818D01*
Y022834D01*
X018858D01*
X017873Y018936D02*
Y018896D01*
X017953D01*
Y018936D01*
X017993D01*
Y019016D01*
X017953D01*
Y019056D01*
X017873D01*
Y019016D01*
X017833D01*
Y018936D01*
X017873D01*
X018228Y018582D02*
Y018542D01*
X018308D01*
Y018582D01*
X018348D01*
Y018662D01*
X018308D01*
Y018702D01*
X018228D01*
Y018662D01*
X018188D01*
Y018582D01*
X018228D01*
X017913Y01811D02*
Y01807D01*
X017993D01*
Y01811D01*
X018033D01*
Y01819D01*
X017993D01*
Y01823D01*
X017913D01*
Y01819D01*
X017873D01*
Y01811D01*
X017913D01*
X018543D02*
Y01807D01*
X018623D01*
Y01811D01*
X018663D01*
Y01819D01*
X018623D01*
Y01823D01*
X018543D01*
Y01819D01*
X018503D01*
Y01811D01*
X018543D01*
X019015D02*
Y01807D01*
X019095D01*
Y01811D01*
X019135D01*
Y01819D01*
X019095D01*
Y01823D01*
X019015D01*
Y01819D01*
X018975D01*
Y01811D01*
X019015D01*
X018488Y024297D02*
Y024257D01*
X018568D01*
Y024297D01*
X018608D01*
Y024377D01*
X018568D01*
Y024417D01*
X018488D01*
Y024377D01*
X018448D01*
Y024297D01*
X018488D01*
X018248Y019267D02*
Y019227D01*
X018328D01*
Y019267D01*
X018368D01*
Y019347D01*
X018328D01*
Y019387D01*
X018248D01*
Y019347D01*
X018208D01*
Y019267D01*
X018248D01*
X018258Y019527D02*
Y019487D01*
X018338D01*
Y019527D01*
X018378D01*
Y019607D01*
X018338D01*
Y019647D01*
X018258D01*
Y019607D01*
X018218D01*
Y019527D01*
X018258D01*
X021468Y023917D02*
Y023877D01*
X021548D01*
Y023917D01*
X021588D01*
Y023997D01*
X021548D01*
Y024037D01*
X021468D01*
Y023997D01*
X021428D01*
Y023917D01*
X021468D01*
X023438Y023237D02*
Y023197D01*
X023518D01*
Y023237D01*
X023558D01*
Y023317D01*
X023518D01*
Y023357D01*
X023438D01*
Y023317D01*
X023398D01*
Y023237D01*
X023438D01*
X025108Y022917D02*
Y022877D01*
X025188D01*
Y022917D01*
X025228D01*
Y022997D01*
X025188D01*
Y023037D01*
X025108D01*
Y022997D01*
X025068D01*
Y022917D01*
X025108D01*
X01849Y024025D02*
Y023985D01*
X01857D01*
Y024025D01*
X01861D01*
Y024105D01*
X01857D01*
Y024145D01*
X01849D01*
Y024105D01*
X01845D01*
Y024025D01*
X01849D01*
X020368Y01879D02*
Y01875D01*
X020448D01*
Y01879D01*
X020488D01*
Y01887D01*
X020448D01*
Y01891D01*
X020368D01*
Y01887D01*
X020328D01*
Y01879D01*
X020368D01*
X018858Y018661D02*
Y018621D01*
X018938D01*
Y018661D01*
X018978D01*
Y018741D01*
X018938D01*
Y018781D01*
X018858D01*
Y018741D01*
X018818D01*
Y018661D01*
X018858D01*
X030905Y024724D02*
Y024684D01*
X030985D01*
Y024724D01*
X031025D01*
Y024804D01*
X030985D01*
Y024844D01*
X030905D01*
Y024804D01*
X030865D01*
Y024724D01*
X030905D01*
X029251D02*
Y024684D01*
X029331D01*
Y024724D01*
X029371D01*
Y024804D01*
X029331D01*
Y024844D01*
X029251D01*
Y024804D01*
X029211D01*
Y024724D01*
X029251D01*
X02622Y021929D02*
Y021888D01*
X0263D01*
Y021929D01*
X02634D01*
Y022009D01*
X0263D01*
Y022048D01*
X02622D01*
Y022009D01*
X02618D01*
Y021929D01*
X02622D01*
X025108Y023207D02*
Y023167D01*
X025188D01*
Y023207D01*
X025228D01*
Y023287D01*
X025188D01*
Y023327D01*
X025108D01*
Y023287D01*
X025068D01*
Y023207D01*
X025108D01*
X026058Y022917D02*
Y022877D01*
X026138D01*
Y022917D01*
X026178D01*
Y022997D01*
X026138D01*
Y023037D01*
X026058D01*
Y022997D01*
X026018D01*
Y022917D01*
X026058D01*
X037716Y024527D02*
Y024487D01*
X037796D01*
Y024527D01*
X037836D01*
Y024607D01*
X037796D01*
Y024647D01*
X037716D01*
Y024607D01*
X037676D01*
Y024527D01*
X037716D01*
X038897D02*
Y024487D01*
X038977D01*
Y024527D01*
X039017D01*
Y024607D01*
X038977D01*
Y024647D01*
X038897D01*
Y024607D01*
X038857D01*
Y024527D01*
X038897D01*
X021898Y017967D02*
Y017927D01*
X021978D01*
Y017967D01*
X022018D01*
Y018047D01*
X021978D01*
Y018087D01*
X021898D01*
Y018047D01*
X021858D01*
Y017967D01*
X021898D01*
X029088Y019357D02*
Y019317D01*
X029168D01*
Y019357D01*
X029208D01*
Y019437D01*
X029168D01*
Y019477D01*
X029088D01*
Y019437D01*
X029048D01*
Y019357D01*
X029088D01*
X028298Y019517D02*
Y019477D01*
X028378D01*
Y019517D01*
X028418D01*
Y019597D01*
X028378D01*
Y019637D01*
X028298D01*
Y019597D01*
X028258D01*
Y019517D01*
X028298D01*
X031558Y019877D02*
Y019837D01*
X031638D01*
Y019877D01*
X031678D01*
Y019957D01*
X031638D01*
Y019997D01*
X031558D01*
Y019957D01*
X031518D01*
Y019877D01*
X031558D01*
X032608Y019357D02*
Y019317D01*
X032688D01*
Y019357D01*
X032728D01*
Y019437D01*
X032688D01*
Y019477D01*
X032608D01*
Y019437D01*
X032568D01*
Y019357D01*
X032608D01*
X034988Y018917D02*
Y018877D01*
X035068D01*
Y018917D01*
X035108D01*
Y018997D01*
X035068D01*
Y019037D01*
X034988D01*
Y018997D01*
X034948D01*
Y018917D01*
X034988D01*
X035428Y018627D02*
Y018587D01*
X035508D01*
Y018627D01*
X035548D01*
Y018707D01*
X035508D01*
Y018747D01*
X035428D01*
Y018707D01*
X035388D01*
Y018627D01*
X035428D01*
X036648Y018647D02*
Y018607D01*
X036728D01*
Y018647D01*
X036768D01*
Y018727D01*
X036728D01*
Y018767D01*
X036648D01*
Y018727D01*
X036608D01*
Y018647D01*
X036648D01*
X036988Y018617D02*
Y018577D01*
X037068D01*
Y018617D01*
X037108D01*
Y018697D01*
X037068D01*
Y018737D01*
X036988D01*
Y018697D01*
X036948D01*
Y018617D01*
X036988D01*
X032568Y020827D02*
Y020787D01*
X032648D01*
Y020827D01*
X032688D01*
Y020907D01*
X032648D01*
Y020947D01*
X032568D01*
Y020907D01*
X032528D01*
Y020827D01*
X032568D01*
X022198Y019567D02*
Y019527D01*
X022278D01*
Y019567D01*
X022318D01*
Y019647D01*
X022278D01*
Y019687D01*
X022198D01*
Y019647D01*
X022158D01*
Y019567D01*
X022198D01*
X023428Y020517D02*
Y020477D01*
X023508D01*
Y020517D01*
X023548D01*
Y020597D01*
X023508D01*
Y020637D01*
X023428D01*
Y020597D01*
X023388D01*
Y020517D01*
X023428D01*
X023418Y020907D02*
Y020867D01*
X023498D01*
Y020907D01*
X023538D01*
Y020987D01*
X023498D01*
Y021027D01*
X023418D01*
Y020987D01*
X023378D01*
Y020907D01*
X023418D01*
X031102Y019527D02*
Y019487D01*
X031182D01*
Y019527D01*
X031222D01*
Y019607D01*
X031182D01*
Y019647D01*
X031102D01*
Y019607D01*
X031062D01*
Y019527D01*
X031102D01*
X029618Y019387D02*
Y019347D01*
X029698D01*
Y019387D01*
X029738D01*
Y019467D01*
X029698D01*
Y019507D01*
X029618D01*
Y019467D01*
X029578D01*
Y019387D01*
X029618D01*
X034606Y019251D02*
Y019211D01*
X034686D01*
Y019251D01*
X034726D01*
Y019331D01*
X034686D01*
Y019371D01*
X034606D01*
Y019331D01*
X034566D01*
Y019251D01*
X034606D01*
X034015D02*
Y019211D01*
X034095D01*
Y019251D01*
X034135D01*
Y019331D01*
X034095D01*
Y019371D01*
X034015D01*
Y019331D01*
X033975D01*
Y019251D01*
X034015D01*
X035039Y02122D02*
Y02118D01*
X035119D01*
Y02122D01*
X035159D01*
Y0213D01*
X035119D01*
Y02134D01*
X035039D01*
Y0213D01*
X034999D01*
Y02122D01*
X035039D01*
X034212Y02118D02*
Y02114D01*
X034292D01*
Y02118D01*
X034332D01*
Y02126D01*
X034292D01*
Y0213D01*
X034212D01*
Y02126D01*
X034172D01*
Y02118D01*
X034212D01*
X035984Y021023D02*
Y020983D01*
X036064D01*
Y021023D01*
X036104D01*
Y021103D01*
X036064D01*
Y021143D01*
X035984D01*
Y021103D01*
X035944D01*
Y021023D01*
X035984D01*
Y021614D02*
Y021574D01*
X036064D01*
Y021614D01*
X036104D01*
Y021694D01*
X036064D01*
Y021734D01*
X035984D01*
Y021694D01*
X035944D01*
Y021614D01*
X035984D01*
Y022204D02*
Y022164D01*
X036064D01*
Y022204D01*
X036104D01*
Y022284D01*
X036064D01*
Y022324D01*
X035984D01*
Y022284D01*
X035944D01*
Y022204D01*
X035984D01*
Y022795D02*
Y022755D01*
X036064D01*
Y022795D01*
X036104D01*
Y022875D01*
X036064D01*
Y022915D01*
X035984D01*
Y022875D01*
X035944D01*
Y022795D01*
X035984D01*
X036377Y023188D02*
Y023148D01*
X036457D01*
Y023188D01*
X036497D01*
Y023268D01*
X036457D01*
Y023308D01*
X036377D01*
Y023268D01*
X036337D01*
Y023188D01*
X036377D01*
X036968D02*
Y023148D01*
X037048D01*
Y023188D01*
X037088D01*
Y023268D01*
X037048D01*
Y023308D01*
X036968D01*
Y023268D01*
X036928D01*
Y023188D01*
X036968D01*
X037558D02*
Y023148D01*
X037638D01*
Y023188D01*
X037678D01*
Y023268D01*
X037638D01*
Y023308D01*
X037558D01*
Y023268D01*
X037518D01*
Y023188D01*
X037558D01*
X038149D02*
Y023148D01*
X038229D01*
Y023188D01*
X038269D01*
Y023268D01*
X038229D01*
Y023308D01*
X038149D01*
Y023268D01*
X038109D01*
Y023188D01*
X038149D01*
X038543Y022795D02*
Y022755D01*
X038623D01*
Y022795D01*
X038663D01*
Y022875D01*
X038623D01*
Y022915D01*
X038543D01*
Y022875D01*
X038503D01*
Y022795D01*
X038543D01*
Y022204D02*
Y022164D01*
X038623D01*
Y022204D01*
X038663D01*
Y022284D01*
X038623D01*
Y022324D01*
X038543D01*
Y022284D01*
X038503D01*
Y022204D01*
X038543D01*
Y021614D02*
Y021574D01*
X038623D01*
Y021614D01*
X038663D01*
Y021694D01*
X038623D01*
Y021734D01*
X038543D01*
Y021694D01*
X038503D01*
Y021614D01*
X038543D01*
Y021023D02*
Y020983D01*
X038623D01*
Y021023D01*
X038663D01*
Y021103D01*
X038623D01*
Y021143D01*
X038543D01*
Y021103D01*
X038503D01*
Y021023D01*
X038543D01*
X038149Y020629D02*
Y020589D01*
X038229D01*
Y020629D01*
X038269D01*
Y020709D01*
X038229D01*
Y020749D01*
X038149D01*
Y020709D01*
X038109D01*
Y020629D01*
X038149D01*
X037558D02*
Y020589D01*
X037638D01*
Y020629D01*
X037678D01*
Y020709D01*
X037638D01*
Y020749D01*
X037558D01*
Y020709D01*
X037518D01*
Y020629D01*
X037558D01*
X036968D02*
Y020589D01*
X037048D01*
Y020629D01*
X037088D01*
Y020709D01*
X037048D01*
Y020749D01*
X036968D01*
Y020709D01*
X036928D01*
Y020629D01*
X036968D01*
X040236Y019054D02*
Y019014D01*
X040316D01*
Y019054D01*
X040356D01*
Y019134D01*
X040316D01*
Y019174D01*
X040236D01*
Y019134D01*
X040196D01*
Y019054D01*
X040236D01*
Y019645D02*
Y019605D01*
X040316D01*
Y019645D01*
X040356D01*
Y019725D01*
X040316D01*
Y019765D01*
X040236D01*
Y019725D01*
X040196D01*
Y019645D01*
X040236D01*
Y020236D02*
Y020196D01*
X040316D01*
Y020236D01*
X040356D01*
Y020316D01*
X040316D01*
Y020356D01*
X040236D01*
Y020316D01*
X040196D01*
Y020236D01*
X040236D01*
Y020826D02*
Y020786D01*
X040316D01*
Y020826D01*
X040356D01*
Y020906D01*
X040316D01*
Y020946D01*
X040236D01*
Y020906D01*
X040196D01*
Y020826D01*
X040236D01*
Y021417D02*
Y021377D01*
X040316D01*
Y021417D01*
X040356D01*
Y021497D01*
X040316D01*
Y021537D01*
X040236D01*
Y021497D01*
X040196D01*
Y021417D01*
X040236D01*
Y022007D02*
Y021967D01*
X040316D01*
Y022007D01*
X040356D01*
Y022087D01*
X040316D01*
Y022127D01*
X040236D01*
Y022087D01*
X040196D01*
Y022007D01*
X040236D01*
Y022598D02*
Y022558D01*
X040316D01*
Y022598D01*
X040356D01*
Y022678D01*
X040316D01*
Y022718D01*
X040236D01*
Y022678D01*
X040196D01*
Y022598D01*
X040236D01*
Y023188D02*
Y023148D01*
X040316D01*
Y023188D01*
X040356D01*
Y023268D01*
X040316D01*
Y023308D01*
X040236D01*
Y023268D01*
X040196D01*
Y023188D01*
X040236D01*
Y023779D02*
Y023739D01*
X040316D01*
Y023779D01*
X040356D01*
Y023859D01*
X040316D01*
Y023899D01*
X040236D01*
Y023859D01*
X040196D01*
Y023779D01*
X040236D01*
Y024369D02*
Y024329D01*
X040316D01*
Y024369D01*
X040356D01*
Y024449D01*
X040316D01*
Y024489D01*
X040236D01*
Y024449D01*
X040196D01*
Y024369D01*
X040236D01*
X03374Y023031D02*
Y022991D01*
X03382D01*
Y023031D01*
X03386D01*
Y023111D01*
X03382D01*
Y023151D01*
X03374D01*
Y023111D01*
X0337D01*
Y023031D01*
X03374D01*
Y023464D02*
Y023424D01*
X03382D01*
Y023464D01*
X03386D01*
Y023544D01*
X03382D01*
Y023584D01*
X03374D01*
Y023544D01*
X0337D01*
Y023464D01*
X03374D01*
Y023818D02*
Y023778D01*
X03382D01*
Y023818D01*
X03386D01*
Y023898D01*
X03382D01*
Y023938D01*
X03374D01*
Y023898D01*
X0337D01*
Y023818D01*
X03374D01*
X032677Y02374D02*
Y0237D01*
X032757D01*
Y02374D01*
X032797D01*
Y02382D01*
X032757D01*
Y02386D01*
X032677D01*
Y02382D01*
X032637D01*
Y02374D01*
X032677D01*
X026968Y022873D02*
Y022833D01*
X027048D01*
Y022873D01*
X027088D01*
Y022953D01*
X027048D01*
Y022993D01*
X026968D01*
Y022953D01*
X026928D01*
Y022873D01*
X026968D01*
X026535Y022243D02*
Y022203D01*
X026615D01*
Y022243D01*
X026655D01*
Y022323D01*
X026615D01*
Y022363D01*
X026535D01*
Y022323D01*
X026495D01*
Y022243D01*
X026535D01*
X028188Y020117D02*
Y020077D01*
X028268D01*
Y020117D01*
X028308D01*
Y020197D01*
X028268D01*
Y020237D01*
X028188D01*
Y020197D01*
X028148D01*
Y020117D01*
X028188D01*
X02685D02*
Y020077D01*
X02693D01*
Y020117D01*
X02697D01*
Y020197D01*
X02693D01*
Y020237D01*
X02685D01*
Y020197D01*
X02681D01*
Y020117D01*
X02685D01*
X030078Y019767D02*
Y019727D01*
X030158D01*
Y019767D01*
X030198D01*
Y019847D01*
X030158D01*
Y019887D01*
X030078D01*
Y019847D01*
X030038D01*
Y019767D01*
X030078D01*
X029173Y020275D02*
Y020235D01*
X029253D01*
Y020275D01*
X029293D01*
Y020355D01*
X029253D01*
Y020395D01*
X029173D01*
Y020355D01*
X029133D01*
Y020275D01*
X029173D01*
X030018Y020317D02*
Y020277D01*
X030098D01*
Y020317D01*
X030138D01*
Y020397D01*
X030098D01*
Y020437D01*
X030018D01*
Y020397D01*
X029978D01*
Y020317D01*
X030018D01*
X032598Y02181D02*
Y02177D01*
X032678D01*
Y02181D01*
X032718D01*
Y02189D01*
X032678D01*
Y02193D01*
X032598D01*
Y02189D01*
X032558D01*
Y02181D01*
X032598D01*
X032283Y022007D02*
Y021967D01*
X032363D01*
Y022007D01*
X032403D01*
Y022087D01*
X032363D01*
Y022127D01*
X032283D01*
Y022087D01*
X032243D01*
Y022007D01*
X032283D01*
X032598Y02248D02*
Y02244D01*
X032678D01*
Y02248D01*
X032718D01*
Y02256D01*
X032678D01*
Y0226D01*
X032598D01*
Y02256D01*
X032558D01*
Y02248D01*
X032598D01*
X032558Y022834D02*
Y022794D01*
X032638D01*
Y022834D01*
X032678D01*
Y022914D01*
X032638D01*
Y022954D01*
X032558D01*
Y022914D01*
X032518D01*
Y022834D01*
X032558D01*
X032322Y023267D02*
Y023227D01*
X032402D01*
Y023267D01*
X032442D01*
Y023347D01*
X032402D01*
Y023387D01*
X032322D01*
Y023347D01*
X032282D01*
Y023267D01*
X032322D01*
X030944Y024133D02*
Y024093D01*
X031024D01*
Y024133D01*
X031064D01*
Y024213D01*
X031024D01*
Y024253D01*
X030944D01*
Y024213D01*
X030904D01*
Y024133D01*
X030944D01*
X030432D02*
Y024093D01*
X030512D01*
Y024133D01*
X030552D01*
Y024213D01*
X030512D01*
Y024253D01*
X030432D01*
Y024213D01*
X030392D01*
Y024133D01*
X030432D01*
X029724Y024369D02*
Y024329D01*
X029804D01*
Y024369D01*
X029844D01*
Y024449D01*
X029804D01*
Y024489D01*
X029724D01*
Y024449D01*
X029684D01*
Y024369D01*
X029724D01*
X028306Y02433D02*
Y02429D01*
X028386D01*
Y02433D01*
X028426D01*
Y02441D01*
X028386D01*
Y02445D01*
X028306D01*
Y02441D01*
X028266D01*
Y02433D01*
X028306D01*
X027598Y024369D02*
Y024329D01*
X027678D01*
Y024369D01*
X027718D01*
Y024449D01*
X027678D01*
Y024489D01*
X027598D01*
Y024449D01*
X027558D01*
Y024369D01*
X027598D01*
X026968D02*
Y024329D01*
X027048D01*
Y024369D01*
X027088D01*
Y024449D01*
X027048D01*
Y024489D01*
X026968D01*
Y024449D01*
X026928D01*
Y024369D01*
X026968D01*
X025669D02*
Y024329D01*
X025749D01*
Y024369D01*
X025789D01*
Y024449D01*
X025749D01*
Y024489D01*
X025669D01*
Y024449D01*
X025629D01*
Y024369D01*
X025669D01*
X024488Y019488D02*
Y019448D01*
X024568D01*
Y019488D01*
X024608D01*
Y019568D01*
X024568D01*
Y019608D01*
X024488D01*
Y019568D01*
X024448D01*
Y019488D01*
X024488D01*
X022795Y018464D02*
Y018424D01*
X022875D01*
Y018464D01*
X022915D01*
Y018544D01*
X022875D01*
Y018584D01*
X022795D01*
Y018544D01*
X022755D01*
Y018464D01*
X022795D01*
X022362Y019803D02*
Y019763D01*
X022442D01*
Y019803D01*
X022482D01*
Y019883D01*
X022442D01*
Y019923D01*
X022362D01*
Y019883D01*
X022322D01*
Y019803D01*
X022362D01*
X022086D02*
Y019763D01*
X022166D01*
Y019803D01*
X022206D01*
Y019883D01*
X022166D01*
Y019923D01*
X022086D01*
Y019883D01*
X022046D01*
Y019803D01*
X022086D01*
X016968Y020511D02*
Y020471D01*
X017048D01*
Y020511D01*
X017088D01*
Y020591D01*
X017048D01*
Y020631D01*
X016968D01*
Y020591D01*
X016928D01*
Y020511D01*
X016968D01*
X016535Y020944D02*
Y020904D01*
X016615D01*
Y020944D01*
X016655D01*
Y021024D01*
X016615D01*
Y021064D01*
X016535D01*
Y021024D01*
X016495D01*
Y020944D01*
X016535D01*
X016338Y021417D02*
Y021377D01*
X016418D01*
Y021417D01*
X016458D01*
Y021497D01*
X016418D01*
Y021537D01*
X016338D01*
Y021497D01*
X016298D01*
Y021417D01*
X016338D01*
Y021968D02*
Y021928D01*
X016418D01*
Y021968D01*
X016458D01*
Y022048D01*
X016418D01*
Y022088D01*
X016338D01*
Y022048D01*
X016298D01*
Y021968D01*
X016338D01*
X016377Y022558D02*
Y022518D01*
X016457D01*
Y022558D01*
X016497D01*
Y022638D01*
X016457D01*
Y022678D01*
X016377D01*
Y022638D01*
X016337D01*
Y022558D01*
X016377D01*
X016968Y022677D02*
Y022637D01*
X017048D01*
Y022677D01*
X017088D01*
Y022757D01*
X017048D01*
Y022797D01*
X016968D01*
Y022757D01*
X016928D01*
Y022677D01*
X016968D01*
X018464Y020944D02*
Y020904D01*
X018544D01*
Y020944D01*
X018584D01*
Y021024D01*
X018544D01*
Y021064D01*
X018464D01*
Y021024D01*
X018424D01*
Y020944D01*
X018464D01*
X018621Y020551D02*
Y020511D01*
X018701D01*
Y020551D01*
X018741D01*
Y020631D01*
X018701D01*
Y020671D01*
X018621D01*
Y020631D01*
X018581D01*
Y020551D01*
X018621D01*
X018818Y020747D02*
Y020707D01*
X018898D01*
Y020747D01*
X018938D01*
Y020827D01*
X018898D01*
Y020867D01*
X018818D01*
Y020827D01*
X018778D01*
Y020747D01*
X018818D01*
X019094Y021023D02*
Y020983D01*
X019174D01*
Y021023D01*
X019214D01*
Y021103D01*
X019174D01*
Y021143D01*
X019094D01*
Y021103D01*
X019054D01*
Y021023D01*
X019094D01*
X023464Y01933D02*
Y01929D01*
X023544D01*
Y01933D01*
X023584D01*
Y01941D01*
X023544D01*
Y01945D01*
X023464D01*
Y01941D01*
X023424D01*
Y01933D01*
X023464D01*
X026929Y019527D02*
Y019487D01*
X027009D01*
Y019527D01*
X027048D01*
Y019607D01*
X027009D01*
Y019647D01*
X026929D01*
Y019607D01*
X026888D01*
Y019527D01*
X026929D01*
X025551Y019488D02*
Y019448D01*
X025631D01*
Y019488D01*
X025671D01*
Y019568D01*
X025631D01*
Y019608D01*
X025551D01*
Y019568D01*
X025511D01*
Y019488D01*
X025551D01*
X026102Y018779D02*
Y018739D01*
X026182D01*
Y018779D01*
X026222D01*
Y018859D01*
X026182D01*
Y018899D01*
X026102D01*
Y018859D01*
X026062D01*
Y018779D01*
X026102D01*
X025629D02*
Y018739D01*
X025709D01*
Y018779D01*
X025749D01*
Y018859D01*
X025709D01*
Y018899D01*
X025629D01*
Y018859D01*
X025589D01*
Y018779D01*
X025629D01*
X025472Y017991D02*
Y017952D01*
X025552D01*
Y017991D01*
X025592D01*
Y018072D01*
X025552D01*
Y018111D01*
X025472D01*
Y018072D01*
X025432D01*
Y017991D01*
X025472D01*
X026299D02*
Y017952D01*
X026379D01*
Y017991D01*
X026419D01*
Y018072D01*
X026379D01*
Y018111D01*
X026299D01*
Y018072D01*
X026259D01*
Y017991D01*
X026299D01*
X02748Y018031D02*
Y017991D01*
X02756D01*
Y018031D01*
X0276D01*
Y018111D01*
X02756D01*
Y018151D01*
X02748D01*
Y018111D01*
X02744D01*
Y018031D01*
X02748D01*
X024448Y018188D02*
Y018148D01*
X024528D01*
Y018188D01*
X024568D01*
Y018268D01*
X024528D01*
Y018308D01*
X024448D01*
Y018268D01*
X024408D01*
Y018188D01*
X024448D01*
Y018621D02*
Y018581D01*
X024528D01*
Y018621D01*
X024568D01*
Y018701D01*
X024528D01*
Y018741D01*
X024448D01*
Y018701D01*
X024408D01*
Y018621D01*
X024448D01*
X0237Y018464D02*
Y018424D01*
X02378D01*
Y018464D01*
X02382D01*
Y018544D01*
X02378D01*
Y018584D01*
X0237D01*
Y018544D01*
X02366D01*
Y018464D01*
X0237D01*
X023385D02*
Y018424D01*
X023465D01*
Y018464D01*
X023505D01*
Y018544D01*
X023465D01*
Y018584D01*
X023385D01*
Y018544D01*
X023345D01*
Y018464D01*
X023385D01*
X026148Y023367D02*
Y023327D01*
X026228D01*
Y023367D01*
X026268D01*
Y023447D01*
X026228D01*
Y023487D01*
X026148D01*
Y023447D01*
X026108D01*
Y023367D01*
X026148D01*
X033048Y025107D02*
Y025067D01*
X033128D01*
Y025107D01*
X033168D01*
Y025187D01*
X033128D01*
Y025227D01*
X033048D01*
Y025187D01*
X033008D01*
Y025107D01*
X033048D01*
X024028Y020857D02*
Y020817D01*
X024108D01*
Y020857D01*
X024148D01*
Y020937D01*
X024108D01*
Y020977D01*
X024028D01*
Y020937D01*
X023988D01*
Y020857D01*
X024028D01*
Y020597D02*
Y020557D01*
X024108D01*
Y020597D01*
X024148D01*
Y020677D01*
X024108D01*
Y020717D01*
X024028D01*
Y020677D01*
X023988D01*
Y020597D01*
X024028D01*
X024025Y019133D02*
Y019093D01*
X024105D01*
Y019133D01*
X024145D01*
Y019213D01*
X024105D01*
Y019253D01*
X024025D01*
Y019213D01*
X023985D01*
Y019133D01*
X024025D01*
X039218Y024197D02*
Y024157D01*
X039298D01*
Y024197D01*
X039338D01*
Y024277D01*
X039298D01*
Y024317D01*
X039218D01*
Y024277D01*
X039178D01*
Y024197D01*
X039218D01*
X030298Y023537D02*
Y023497D01*
X030378D01*
Y023537D01*
X030418D01*
Y023617D01*
X030378D01*
Y023657D01*
X030298D01*
Y023617D01*
X030258D01*
Y023537D01*
X030298D01*
X030658Y023315D02*
Y023275D01*
X030738D01*
Y023315D01*
X030778D01*
Y023395D01*
X030738D01*
Y023435D01*
X030658D01*
Y023395D01*
X030618D01*
Y023315D01*
X030658D01*
X029418Y023097D02*
Y023057D01*
X029498D01*
Y023097D01*
X029538D01*
Y023177D01*
X029498D01*
Y023217D01*
X029418D01*
Y023177D01*
X029378D01*
Y023097D01*
X029418D01*
X031908Y022267D02*
Y022227D01*
X031988D01*
Y022267D01*
X032028D01*
Y022347D01*
X031988D01*
Y022387D01*
X031908D01*
Y022347D01*
X031868D01*
Y022267D01*
X031908D01*
X032788Y025107D02*
Y025067D01*
X032868D01*
Y025107D01*
X032908D01*
Y025187D01*
X032868D01*
Y025227D01*
X032788D01*
Y025187D01*
X032748D01*
Y025107D01*
X032788D01*
X030598Y024447D02*
Y024407D01*
X030678D01*
Y024447D01*
X030718D01*
Y024527D01*
X030678D01*
Y024567D01*
X030598D01*
Y024527D01*
X030558D01*
Y024447D01*
X030598D01*
X035718Y024697D02*
Y024657D01*
X035798D01*
Y024697D01*
X035838D01*
Y024777D01*
X035798D01*
Y024817D01*
X035718D01*
Y024777D01*
X035678D01*
Y024697D01*
X035718D01*
X031486Y024179D02*
Y024139D01*
X031566D01*
Y024179D01*
X031606D01*
Y024259D01*
X031566D01*
Y024299D01*
X031486D01*
Y024259D01*
X031446D01*
Y024179D01*
X031486D01*
X032524Y0212D02*
Y02116D01*
X032604D01*
Y0212D01*
X032644D01*
Y02128D01*
X032604D01*
Y02132D01*
X032524D01*
Y02128D01*
X032484D01*
Y0212D01*
X032524D01*
X039718Y024357D02*
Y024317D01*
X039798D01*
Y024357D01*
X039838D01*
Y024437D01*
X039798D01*
Y024477D01*
X039718D01*
Y024437D01*
X039678D01*
Y024357D01*
X039718D01*
Y024657D02*
Y024617D01*
X039798D01*
Y024657D01*
X039838D01*
Y024737D01*
X039798D01*
Y024777D01*
X039718D01*
Y024737D01*
X039678D01*
Y024657D01*
X039718D01*
X022515Y020659D02*
Y020619D01*
X022595D01*
Y020659D01*
X022635D01*
Y020739D01*
X022595D01*
Y020779D01*
X022515D01*
Y020739D01*
X022475D01*
Y020659D01*
X022515D01*
X021114Y020432D02*
Y020392D01*
X021194D01*
Y020432D01*
X021234D01*
Y020512D01*
X021194D01*
Y020552D01*
X021114D01*
Y020512D01*
X021074D01*
Y020432D01*
X021114D01*
X020938Y018337D02*
Y018297D01*
X021018D01*
Y018337D01*
X021058D01*
Y018417D01*
X021018D01*
Y018457D01*
X020938D01*
Y018417D01*
X020898D01*
Y018337D01*
X020938D01*
Y018957D02*
Y018917D01*
X021018D01*
Y018957D01*
X021058D01*
Y019037D01*
X021018D01*
Y019077D01*
X020938D01*
Y019037D01*
X020898D01*
Y018957D01*
X020938D01*
X021318Y018417D02*
Y018377D01*
X021398D01*
Y018417D01*
X021438D01*
Y018497D01*
X021398D01*
Y018537D01*
X021318D01*
Y018497D01*
X021278D01*
Y018417D01*
X021318D01*
X035718Y020217D02*
Y020177D01*
X035798D01*
Y020217D01*
X035838D01*
Y020297D01*
X035798D01*
Y020337D01*
X035718D01*
Y020297D01*
X035678D01*
Y020217D01*
X035718D01*
X035928Y020477D02*
Y020437D01*
X036008D01*
Y020477D01*
X036048D01*
Y020557D01*
X036008D01*
Y020597D01*
X035928D01*
Y020557D01*
X035888D01*
Y020477D01*
X035928D01*
X035078Y019877D02*
Y019837D01*
X035158D01*
Y019877D01*
X035198D01*
Y019957D01*
X035158D01*
Y019997D01*
X035078D01*
Y019957D01*
X035038D01*
Y019877D01*
X035078D01*
X034838Y019627D02*
Y019587D01*
X034918D01*
Y019627D01*
X034958D01*
Y019707D01*
X034918D01*
Y019747D01*
X034838D01*
Y019707D01*
X034798D01*
Y019627D01*
X034838D01*
X031828Y019637D02*
Y019597D01*
X031908D01*
Y019637D01*
X031948D01*
Y019717D01*
X031908D01*
Y019757D01*
X031828D01*
Y019717D01*
X031788D01*
Y019637D01*
X031828D01*
X032204Y019863D02*
Y019823D01*
X032284D01*
Y019863D01*
X032324D01*
Y019943D01*
X032284D01*
Y019983D01*
X032204D01*
Y019943D01*
X032164D01*
Y019863D01*
X032204D01*
X038238Y018617D02*
Y018577D01*
X038318D01*
Y018617D01*
X038358D01*
Y018697D01*
X038318D01*
Y018737D01*
X038238D01*
Y018697D01*
X038198D01*
Y018617D01*
X038238D01*
X038768D02*
Y018577D01*
X038848D01*
Y018617D01*
X038888D01*
Y018697D01*
X038848D01*
Y018737D01*
X038768D01*
Y018697D01*
X038728D01*
Y018617D01*
X038768D01*
X031008Y020837D02*
Y020797D01*
X031088D01*
Y020837D01*
X031128D01*
Y020917D01*
X031088D01*
Y020957D01*
X031008D01*
Y020917D01*
X030968D01*
Y020837D01*
X031008D01*
X030729Y02145D02*
Y02141D01*
X030809D01*
Y02145D01*
X030849D01*
Y02153D01*
X030809D01*
Y02157D01*
X030729D01*
Y02153D01*
X030689D01*
Y02145D01*
X030729D01*
X021668Y018417D02*
Y018377D01*
X021748D01*
Y018417D01*
X021788D01*
Y018497D01*
X021748D01*
Y018537D01*
X021668D01*
Y018497D01*
X021628D01*
Y018417D01*
X021668D01*
X021203Y019523D02*
Y019483D01*
X021283D01*
Y019523D01*
X021323D01*
Y019603D01*
X021283D01*
Y019643D01*
X021203D01*
Y019603D01*
X021163D01*
Y019523D01*
X021203D01*
X032209Y02077D02*
Y02073D01*
X032289D01*
Y02077D01*
X032329D01*
Y02085D01*
X032289D01*
Y02089D01*
X032209D01*
Y02085D01*
X032169D01*
Y02077D01*
X032209D01*
X031554Y022406D02*
Y022366D01*
X031634D01*
Y022406D01*
X031674D01*
Y022486D01*
X031634D01*
Y022526D01*
X031554D01*
Y022486D01*
X031514D01*
Y022406D01*
X031554D01*
D86*
X022127Y021654D02*
G03*
X022127Y021654I-00008J0D01*
G01*
X022915D02*
G03*
X022915Y021654I-00008J0D01*
G01*
X023702D02*
G03*
X023702Y021654I-00008J0D01*
G01*
M02*
