G04*
G04 #@! TF.GenerationSoftware,Altium Limited,Altium Designer,21.0.9 (235)*
G04*
G04 Layer_Color=255*
%FSTAX24Y24*%
%MOIN*%
G70*
G04*
G04 #@! TF.SameCoordinates,F3794B47-591B-43CD-9A24-B45F9C40A272*
G04*
G04*
G04 #@! TF.FilePolarity,Positive*
G04*
G01*
G75*
%ADD21R,0.0591X0.0591*%
%ADD22O,0.0098X0.0354*%
%ADD23O,0.0354X0.0098*%
%ADD24R,0.0315X0.0217*%
%ADD25R,0.0374X0.0236*%
%ADD26R,0.0472X0.0299*%
%ADD27R,0.0472X0.0315*%
%ADD28R,0.0315X0.0512*%
%ADD29R,0.0827X0.1181*%
G04:AMPARAMS|DCode=30|XSize=24mil|YSize=11.8mil|CornerRadius=3mil|HoleSize=0mil|Usage=FLASHONLY|Rotation=90.000|XOffset=0mil|YOffset=0mil|HoleType=Round|Shape=RoundedRectangle|*
%AMROUNDEDRECTD30*
21,1,0.0240,0.0059,0,0,90.0*
21,1,0.0181,0.0118,0,0,90.0*
1,1,0.0059,0.0030,0.0091*
1,1,0.0059,0.0030,-0.0091*
1,1,0.0059,-0.0030,-0.0091*
1,1,0.0059,-0.0030,0.0091*
%
%ADD30ROUNDEDRECTD30*%
G04:AMPARAMS|DCode=31|XSize=24mil|YSize=11.8mil|CornerRadius=3mil|HoleSize=0mil|Usage=FLASHONLY|Rotation=180.000|XOffset=0mil|YOffset=0mil|HoleType=Round|Shape=RoundedRectangle|*
%AMROUNDEDRECTD31*
21,1,0.0240,0.0059,0,0,180.0*
21,1,0.0181,0.0118,0,0,180.0*
1,1,0.0059,-0.0091,0.0030*
1,1,0.0059,0.0091,0.0030*
1,1,0.0059,0.0091,-0.0030*
1,1,0.0059,-0.0091,-0.0030*
%
%ADD31ROUNDEDRECTD31*%
%ADD32R,0.1772X0.1772*%
%ADD33R,0.0354X0.0591*%
%ADD34R,0.0591X0.0354*%
%ADD35R,0.0177X0.0217*%
%ADD36R,0.0217X0.0177*%
%ADD37R,0.0201X0.0201*%
%ADD38R,0.0201X0.0201*%
%ADD39R,0.0413X0.0256*%
%ADD40R,0.0236X0.0394*%
%ADD41R,0.0177X0.0315*%
%ADD42R,0.0315X0.0177*%
D21*
X020315Y019646D02*
D03*
D22*
X02002Y020197D02*
D03*
X020217D02*
D03*
X020413D02*
D03*
X02061D02*
D03*
Y019094D02*
D03*
X020413D02*
D03*
X020217D02*
D03*
X02002D02*
D03*
D23*
X020866Y019941D02*
D03*
Y019744D02*
D03*
Y019547D02*
D03*
Y01935D02*
D03*
X019764D02*
D03*
Y019547D02*
D03*
Y019744D02*
D03*
Y019941D02*
D03*
D24*
X029606Y021831D02*
D03*
Y021476D02*
D03*
X030236D02*
D03*
Y021831D02*
D03*
D25*
X022501Y018874D02*
D03*
Y0185D02*
D03*
Y018126D02*
D03*
X023584D02*
D03*
Y018874D02*
D03*
D26*
X017904Y021055D02*
D03*
Y022252D02*
D03*
Y02185D02*
D03*
Y021457D02*
D03*
D27*
Y020571D02*
D03*
Y022736D02*
D03*
D28*
X022589Y023868D02*
D03*
X023081D02*
D03*
D29*
X021585Y024951D02*
D03*
X024085D02*
D03*
D30*
X031201Y021197D02*
D03*
X031398D02*
D03*
X031594D02*
D03*
X031791D02*
D03*
Y02211D02*
D03*
X031594D02*
D03*
X031398D02*
D03*
X031201D02*
D03*
D31*
X031854Y021457D02*
D03*
Y021654D02*
D03*
Y02185D02*
D03*
X031138D02*
D03*
Y021654D02*
D03*
Y021457D02*
D03*
D32*
X03737Y021921D02*
D03*
D33*
X03376Y025157D02*
D03*
X04026Y018154D02*
D03*
X03976D02*
D03*
X03926D02*
D03*
X03876D02*
D03*
X03826D02*
D03*
X03776D02*
D03*
X03726D02*
D03*
X03676D02*
D03*
X03626D02*
D03*
X03576D02*
D03*
X03526Y018154D02*
D03*
X03476Y018154D02*
D03*
X03426D02*
D03*
X03376D02*
D03*
X03426Y025157D02*
D03*
X03476Y025157D02*
D03*
X03526Y025157D02*
D03*
X03576D02*
D03*
X03626D02*
D03*
X03676D02*
D03*
X03726Y025157D02*
D03*
X03776Y025157D02*
D03*
X03826D02*
D03*
X03876D02*
D03*
X03926D02*
D03*
X03976Y025157D02*
D03*
X04026Y025157D02*
D03*
D34*
X033169Y019406D02*
D03*
Y019906D02*
D03*
Y020406D02*
D03*
Y020906D02*
D03*
Y021406D02*
D03*
Y021906D02*
D03*
Y022406D02*
D03*
Y022906D02*
D03*
Y023406D02*
D03*
Y023906D02*
D03*
D35*
X02798Y019213D02*
D03*
X02832D02*
D03*
X021824Y020079D02*
D03*
X021484D02*
D03*
X018885Y018937D02*
D03*
X019225D02*
D03*
X018885Y019331D02*
D03*
X019225D02*
D03*
X029461Y02374D02*
D03*
X029121D02*
D03*
X025657Y019213D02*
D03*
X025997D02*
D03*
X027375D02*
D03*
X027035D02*
D03*
X021484Y020472D02*
D03*
X021824D02*
D03*
X026115Y02378D02*
D03*
X025775D02*
D03*
D36*
X019921Y018019D02*
D03*
Y018359D02*
D03*
X020315Y018019D02*
D03*
Y018359D02*
D03*
X020669Y018019D02*
D03*
Y018359D02*
D03*
X019882Y021076D02*
D03*
Y020736D02*
D03*
X019488Y021076D02*
D03*
Y020736D02*
D03*
X029449Y024501D02*
D03*
Y024161D02*
D03*
X026496Y023792D02*
D03*
Y023452D02*
D03*
Y024501D02*
D03*
Y024161D02*
D03*
X032244Y020564D02*
D03*
Y020224D02*
D03*
X03189Y020564D02*
D03*
Y020224D02*
D03*
X031535D02*
D03*
Y020564D02*
D03*
X031181Y020224D02*
D03*
Y020564D02*
D03*
X030827Y020224D02*
D03*
Y020564D02*
D03*
X029252Y019673D02*
D03*
Y020013D02*
D03*
X018465Y019791D02*
D03*
Y020131D02*
D03*
X022205Y020446D02*
D03*
Y020106D02*
D03*
X025197Y019186D02*
D03*
Y018846D02*
D03*
X024213Y023295D02*
D03*
Y023635D02*
D03*
X022598Y02294D02*
D03*
Y02328D02*
D03*
X021181Y02361D02*
D03*
Y02395D02*
D03*
X018465Y02231D02*
D03*
Y02265D02*
D03*
X026614Y018846D02*
D03*
Y019186D02*
D03*
D37*
X021476Y019331D02*
D03*
X021831D02*
D03*
X021476Y019685D02*
D03*
X021831D02*
D03*
X02065Y020709D02*
D03*
X020295D02*
D03*
X02065Y021063D02*
D03*
X020295D02*
D03*
X032343Y022874D02*
D03*
X031988D02*
D03*
X032343Y02252D02*
D03*
X031988D02*
D03*
X019508Y023228D02*
D03*
X019862D02*
D03*
D38*
X019213Y019783D02*
D03*
Y020138D02*
D03*
X018858Y019783D02*
D03*
Y020138D02*
D03*
X031969Y025138D02*
D03*
Y024783D02*
D03*
X032362Y025138D02*
D03*
Y024783D02*
D03*
X029094Y024508D02*
D03*
Y024154D02*
D03*
X026142Y024508D02*
D03*
Y024154D02*
D03*
X032283Y021594D02*
D03*
Y02124D02*
D03*
X024066Y01852D02*
D03*
Y018874D02*
D03*
X022559Y020098D02*
D03*
Y020453D02*
D03*
X023819Y023287D02*
D03*
Y023642D02*
D03*
X022019Y01848D02*
D03*
Y018835D02*
D03*
X019513Y023893D02*
D03*
Y024247D02*
D03*
D39*
X029892Y024754D02*
D03*
X031526D02*
D03*
X029892Y023907D02*
D03*
X031526D02*
D03*
X026939Y024754D02*
D03*
X028573D02*
D03*
X026939Y023907D02*
D03*
X028573D02*
D03*
D40*
X028346Y02063D02*
D03*
X02872Y019685D02*
D03*
X027972D02*
D03*
X026594D02*
D03*
X027343D02*
D03*
X026969Y02063D02*
D03*
X025591D02*
D03*
X025965Y019685D02*
D03*
X025217D02*
D03*
X020728Y024252D02*
D03*
X01998D02*
D03*
X020354Y023307D02*
D03*
D41*
X019001Y024237D02*
D03*
Y023351D02*
D03*
D42*
X020974Y022913D02*
D03*
X02186D02*
D03*
M02*
