G04*
G04 #@! TF.GenerationSoftware,Altium Limited,Altium Designer,21.0.9 (235)*
G04*
G04 Layer_Physical_Order=2*
G04 Layer_Color=16711680*
%FSTAX24Y24*%
%MOIN*%
G70*
G04*
G04 #@! TF.SameCoordinates,F3794B47-591B-43CD-9A24-B45F9C40A272*
G04*
G04*
G04 #@! TF.FilePolarity,Positive*
G04*
G01*
G75*
%ADD11C,0.0100*%
%ADD14C,0.0080*%
%ADD21R,0.0591X0.0591*%
%ADD71C,0.0150*%
%ADD72C,0.0200*%
%ADD73C,0.0120*%
%ADD74O,0.0669X0.0433*%
%ADD75O,0.0472X0.0709*%
%ADD76R,0.0472X0.0709*%
%ADD77O,0.0787X0.0984*%
%ADD78C,0.0984*%
%ADD79C,0.0591*%
%ADD80C,0.0236*%
%ADD81R,0.0512X0.0315*%
%ADD82R,0.1181X0.0827*%
G36*
X039918Y025127D02*
Y024327D01*
X039848Y024257D01*
X039658D01*
X039598Y024317D01*
Y024927D01*
X039528Y024997D01*
X032728D01*
X032658Y025067D01*
Y025287D01*
X032698Y025327D01*
X039718D01*
X039918Y025127D01*
D02*
G37*
G36*
X016535Y025504D02*
X02557D01*
X025617Y025362D01*
X025617Y025354D01*
X023982Y023719D01*
X021904D01*
X021686Y023937D01*
Y023992D01*
X021659Y024057D01*
X021609Y024108D01*
X021543Y024135D01*
X021473D01*
X021407Y024108D01*
X021357Y024057D01*
X02133Y023992D01*
Y023921D01*
X021357Y023856D01*
X021407Y023806D01*
X021473Y023778D01*
X021528D01*
X021779Y023527D01*
X021779Y023527D01*
X021815Y023503D01*
X021858Y023494D01*
X021858Y023494D01*
X023232D01*
X023267Y023452D01*
X023313Y023344D01*
X0233Y023312D01*
Y023241D01*
X023327Y023176D01*
X023377Y023126D01*
X023443Y023098D01*
X023513D01*
X023579Y023126D01*
X023618Y023164D01*
X024068D01*
X024068Y023164D01*
X024111Y023173D01*
X024147Y023197D01*
X025924Y024974D01*
X029992D01*
X03046Y024506D01*
Y024451D01*
X030487Y024386D01*
X030537Y024336D01*
X030603Y024308D01*
X030673D01*
X030739Y024336D01*
X030789Y024386D01*
X030816Y024451D01*
Y024522D01*
X030789Y024587D01*
X030739Y024638D01*
X030673Y024665D01*
X030619D01*
X030257Y025026D01*
X030315Y025164D01*
X032012D01*
X032519Y024657D01*
X032519Y024657D01*
X032555Y024633D01*
X032598Y024624D01*
X035618D01*
X035657Y024586D01*
X035723Y024558D01*
X035793D01*
X035859Y024586D01*
X035909Y024636D01*
X035936Y024701D01*
Y024772D01*
X036048Y024895D01*
X039486D01*
X039496Y024884D01*
Y024463D01*
X039411Y024416D01*
X039346Y024393D01*
X039293Y024415D01*
X039223D01*
X039157Y024388D01*
X03911Y02434D01*
X031657D01*
X031626Y02437D01*
X031561Y024397D01*
X03149D01*
X031425Y02437D01*
X031375Y02432D01*
X031347Y024254D01*
Y024184D01*
X031375Y024118D01*
X031425Y024068D01*
X03149Y024041D01*
X031561D01*
X031626Y024068D01*
X031674Y024116D01*
X039127D01*
X039157Y024086D01*
X039223Y024058D01*
X039293D01*
X039359Y024086D01*
X039409Y024136D01*
X039415Y02415D01*
X039559Y024191D01*
X039581Y024189D01*
X039586Y024184D01*
X039619Y024162D01*
X039658Y024155D01*
X039848D01*
X039887Y024162D01*
X03992Y024184D01*
X03999Y024254D01*
X040012Y024288D01*
X04002Y024327D01*
Y025127D01*
X040012Y025166D01*
X03999Y025199D01*
X039835Y025354D01*
X039897Y025504D01*
X040465D01*
Y017803D01*
X038352D01*
X03833Y017831D01*
X03826Y017964D01*
X038774Y018478D01*
X038843D01*
X038909Y018506D01*
X038959Y018556D01*
X038986Y018621D01*
Y018692D01*
X038959Y018757D01*
X038909Y018808D01*
X038843Y018835D01*
X038773D01*
X038707Y018808D01*
X038657Y018757D01*
X038644Y018726D01*
X038602Y018702D01*
X038587Y018701D01*
X038429Y018757D01*
X038379Y018808D01*
X038313Y018835D01*
X038243D01*
X038177Y018808D01*
X038127Y018757D01*
X0381Y018692D01*
Y018623D01*
X037766Y018288D01*
X03226D01*
X03178Y018769D01*
X031747Y018791D01*
X031708Y018798D01*
X030799D01*
X03076Y018791D01*
X030727Y018769D01*
X030605Y018646D01*
X030542Y018683D01*
X030429Y018713D01*
X030311D01*
X030198Y018683D01*
X030097Y018624D01*
X030014Y018541D01*
X029955Y01844D01*
X029948Y018412D01*
X029792D01*
X029785Y01844D01*
X029726Y018541D01*
X029643Y018624D01*
X029542Y018683D01*
X029429Y018713D01*
X029311D01*
X029198Y018683D01*
X02919Y018678D01*
X02858Y019289D01*
X028527Y019324D01*
X028464Y019337D01*
X024137D01*
X0241Y019352D01*
X024029D01*
X023964Y019324D01*
X023914Y019274D01*
X023887Y019209D01*
Y019138D01*
X023914Y019073D01*
X023927Y019059D01*
Y01826D01*
X023811Y018144D01*
X022052D01*
X022039Y018158D01*
X021973Y018185D01*
X021903D01*
X021837Y018158D01*
X021787Y018107D01*
X02176Y018042D01*
Y017971D01*
X021767Y017953D01*
X021706Y017828D01*
X021679Y017803D01*
X016535D01*
X016535Y017803D01*
X016399Y017817D01*
X016267Y017857D01*
X016146Y017921D01*
X01604Y018008D01*
X015953Y018115D01*
X015888Y018236D01*
X015848Y018367D01*
X015835Y018504D01*
X015835Y018504D01*
Y024803D01*
X015835Y024803D01*
X015848Y02494D01*
X015888Y025071D01*
X015953Y025192D01*
X01604Y025299D01*
X016146Y025386D01*
X016267Y025451D01*
X016399Y02549D01*
X016535Y025504D01*
X016535Y025504D01*
D02*
G37*
G36*
X02896Y018447D02*
X028955Y01844D01*
X028925Y018326D01*
Y018209D01*
X028955Y018096D01*
X029014Y017994D01*
X029055Y017953D01*
X028996Y017803D01*
X024071D01*
X024009Y017953D01*
X024162Y018106D01*
X024162Y018106D01*
X024192Y018151D01*
X024203Y018203D01*
X024203Y018203D01*
Y01901D01*
X028397D01*
X02896Y018447D01*
D02*
G37*
%LPC*%
G36*
X019168Y024578D02*
X018478D01*
X018439Y024571D01*
X018406Y024549D01*
X018316Y024459D01*
X018294Y024426D01*
X018286Y024387D01*
Y023997D01*
X018294Y023958D01*
X018316Y023924D01*
X018416Y023824D01*
X018449Y023802D01*
X018488Y023795D01*
X019188D01*
X019227Y023802D01*
X01926Y023824D01*
X019263Y023827D01*
X019283D01*
Y023847D01*
X01931Y023874D01*
X019332Y023908D01*
X01934Y023947D01*
Y024407D01*
X019332Y024446D01*
X01931Y024479D01*
X01924Y024549D01*
X019207Y024571D01*
X019168Y024578D01*
D02*
G37*
G36*
X016992Y025052D02*
X016866D01*
X016742Y025027D01*
X016625Y024978D01*
X01652Y024908D01*
X01643Y024819D01*
X01636Y024714D01*
X016312Y024597D01*
X016287Y024473D01*
Y024346D01*
X016312Y024222D01*
X01636Y024105D01*
X01643Y024D01*
X01652Y023911D01*
X016625Y02384D01*
X016742Y023792D01*
X016866Y023767D01*
X016992D01*
X017116Y023792D01*
X017233Y02384D01*
X017338Y023911D01*
X017428Y024D01*
X017498Y024105D01*
X017547Y024222D01*
X017571Y024346D01*
Y024473D01*
X017547Y024597D01*
X017498Y024714D01*
X017428Y024819D01*
X017338Y024908D01*
X017233Y024978D01*
X017116Y025027D01*
X016992Y025052D01*
D02*
G37*
G36*
X030373Y023755D02*
X030303D01*
X030237Y023728D01*
X030187Y023677D01*
X03016Y023612D01*
Y023541D01*
X030162Y023535D01*
X029786Y023159D01*
X029733Y023163D01*
X029622Y023207D01*
X029609Y023237D01*
X029559Y023288D01*
X029493Y023315D01*
X029423D01*
X029357Y023288D01*
X029308Y023238D01*
X027788D01*
X027749Y023231D01*
X027716Y023209D01*
X025654Y021147D01*
X02543D01*
X02543Y023165D01*
X02629Y023165D01*
X026329Y023172D01*
X026363Y023194D01*
X02641Y023242D01*
X026432Y023275D01*
X02644Y023314D01*
Y023503D01*
X026432Y023542D01*
X02641Y023575D01*
X026367Y023619D01*
X026334Y023641D01*
X026295Y023648D01*
X025371Y023648D01*
X025128D01*
X025089Y023641D01*
X025056Y023619D01*
X024936Y023499D01*
X024914Y023466D01*
X024906Y023427D01*
Y021239D01*
X024796Y021128D01*
X02415D01*
X024008Y021149D01*
X024008Y021278D01*
Y022158D01*
X023236D01*
Y02213D01*
X023176Y02209D01*
X023086Y022066D01*
X023029Y022109D01*
X022935Y022148D01*
X022835Y022161D01*
X022734Y022148D01*
X02264Y022109D01*
X022559Y022047D01*
X022497Y021966D01*
X022458Y021872D01*
X022445Y021772D01*
Y021535D01*
X022458Y021435D01*
X022497Y021341D01*
X022559Y02126D01*
X02264Y021198D01*
X022734Y021159D01*
X022835Y021146D01*
X022935Y021159D01*
X023029Y021198D01*
X023086Y021241D01*
X023176Y021217D01*
X023236Y021177D01*
Y021149D01*
X023744D01*
X023778Y021113D01*
X023823Y021007D01*
X023823Y020999D01*
X023816Y020967D01*
Y020547D01*
X023735Y020442D01*
X023703Y020418D01*
X02298D01*
X022734Y020665D01*
Y020735D01*
X022706Y0208D01*
X022656Y02085D01*
X022591Y020877D01*
X02252D01*
X022455Y02085D01*
X022404Y0208D01*
X022377Y020735D01*
Y020664D01*
X022404Y020598D01*
X022455Y020548D01*
X02252Y020521D01*
X022589D01*
X022866Y020244D01*
X022874Y020239D01*
X022911Y020118D01*
X022916Y020069D01*
X022294Y019447D01*
X02155D01*
X021421Y019528D01*
Y019599D01*
X021394Y019664D01*
X021344Y019714D01*
X021278Y019741D01*
X021207D01*
X021142Y019714D01*
X021103Y019675D01*
X020005D01*
X020005Y019675D01*
X019962Y019667D01*
X019925Y019643D01*
X019099Y018816D01*
X019034D01*
X018999Y018852D01*
X018933Y018879D01*
X018862D01*
X018797Y018852D01*
X018747Y018802D01*
X01872Y018736D01*
Y018665D01*
X018747Y0186D01*
X018797Y01855D01*
X018862Y018523D01*
X018933D01*
X018999Y01855D01*
X019041Y018592D01*
X019146D01*
X019146Y018592D01*
X019189Y018601D01*
X019225Y018625D01*
X020051Y019451D01*
X020673D01*
X020735Y019301D01*
X020442Y019008D01*
X020373D01*
X020307Y018981D01*
X020257Y018931D01*
X02023Y018865D01*
Y018794D01*
X020257Y018729D01*
X020307Y018679D01*
X020373Y018652D01*
X020443D01*
X020509Y018679D01*
X020559Y018729D01*
X020586Y018794D01*
Y018823D01*
X02071Y018926D01*
X020827Y018896D01*
X020866Y018857D01*
Y018516D01*
X020827Y018477D01*
X0208Y018412D01*
Y018341D01*
X020827Y018276D01*
X020877Y018226D01*
X020943Y018198D01*
X021013D01*
X021079Y018226D01*
X021129Y018276D01*
X021156Y018341D01*
Y018412D01*
X021129Y018477D01*
X02109Y018516D01*
Y018857D01*
X021128Y018895D01*
X022398D01*
X022437Y018902D01*
X02247Y018924D01*
X0234Y019855D01*
X025118D01*
X025157Y019862D01*
X02519Y019884D01*
X027197Y021891D01*
X027262Y021868D01*
X02733Y021812D01*
X027311Y021717D01*
Y02159D01*
X027335Y021466D01*
X027384Y021349D01*
X027454Y021244D01*
X027543Y021155D01*
X027649Y021084D01*
X027765Y021036D01*
X02789Y021011D01*
X028016D01*
X02814Y021036D01*
X028257Y021084D01*
X028362Y021155D01*
X028452Y021244D01*
X028522Y021349D01*
X02857Y021466D01*
X028595Y02159D01*
Y021717D01*
X02857Y021841D01*
X028522Y021958D01*
X028452Y022063D01*
X028362Y022152D01*
X028257Y022223D01*
X02814Y022271D01*
X028016Y022296D01*
X02789D01*
X027795Y022277D01*
X027739Y022345D01*
X027715Y02241D01*
X02786Y022555D01*
X03D01*
X030039Y022562D01*
X030072Y022584D01*
X030664Y023177D01*
X030733D01*
X030799Y023204D01*
X030849Y023254D01*
X030876Y023319D01*
Y02339D01*
X030849Y023456D01*
X030799Y023506D01*
X030733Y023533D01*
X030663D01*
X030521Y023609D01*
X030513Y023621D01*
X030489Y023677D01*
X030439Y023728D01*
X030373Y023755D01*
D02*
G37*
G36*
X03163Y022624D02*
X031559D01*
X031494Y022597D01*
X031443Y022547D01*
X031416Y022481D01*
Y02241D01*
X031443Y022345D01*
X031493Y022296D01*
Y021465D01*
X0315Y021426D01*
X031522Y021393D01*
X032071Y020844D01*
Y020775D01*
X032074Y020768D01*
X031999Y020629D01*
X031986Y020618D01*
X031785D01*
X030947Y021457D01*
Y021526D01*
X03092Y021591D01*
X03087Y021641D01*
X030804Y021669D01*
X030734D01*
X030668Y021641D01*
X030618Y021591D01*
X030591Y021526D01*
Y021455D01*
X030618Y02139D01*
X030668Y021339D01*
X030734Y021312D01*
X030803D01*
X030932Y021184D01*
X030947Y021028D01*
X030897Y020977D01*
X03087Y020912D01*
Y020841D01*
X030897Y020776D01*
X030947Y020726D01*
X031013Y020698D01*
X031082D01*
X031596Y020184D01*
X031629Y020162D01*
X031668Y020155D01*
X032032D01*
X032094Y020005D01*
X032093Y020003D01*
X032066Y019938D01*
Y019937D01*
X032047Y019915D01*
X031925Y019846D01*
X031903Y019855D01*
X031833D01*
X031767Y019828D01*
X031717Y019777D01*
X03169Y019712D01*
Y019641D01*
X031717Y019576D01*
X031767Y019526D01*
X031833Y019498D01*
X031903D01*
X031969Y019526D01*
X032003Y019559D01*
X034733D01*
X034777Y019516D01*
X034843Y019488D01*
X034913D01*
X034979Y019516D01*
X035029Y019566D01*
X035056Y019631D01*
X035075Y019709D01*
X035153Y019738D01*
X035219Y019766D01*
X035269Y019816D01*
X035296Y019881D01*
Y019952D01*
X035274Y020005D01*
X035298Y02007D01*
X035344Y020155D01*
X035608D01*
X035657Y020106D01*
X035723Y020078D01*
X035793D01*
X035859Y020106D01*
X035909Y020156D01*
X035936Y020221D01*
Y020292D01*
X036003Y020338D01*
X036069Y020366D01*
X036119Y020416D01*
X036146Y020481D01*
Y020552D01*
X036119Y020617D01*
X036069Y020668D01*
X036003Y020695D01*
X035933D01*
X035867Y020668D01*
X035818Y020618D01*
X032512D01*
X032499Y020629D01*
X032424Y020768D01*
X032427Y020775D01*
Y020846D01*
X0324Y020911D01*
X03235Y020961D01*
X032284Y020989D01*
X032215D01*
X031696Y021507D01*
Y021681D01*
X031725Y021704D01*
X031862Y02177D01*
X032386Y021245D01*
Y021205D01*
X032413Y021139D01*
X032464Y021089D01*
X032529Y021062D01*
X0326D01*
X032665Y021089D01*
X032715Y021139D01*
X032743Y021205D01*
Y021276D01*
X032715Y021341D01*
X032665Y021391D01*
X0326Y021418D01*
X032559D01*
X03207Y021907D01*
Y022177D01*
X032099Y022206D01*
X032126Y022271D01*
Y022342D01*
X032099Y022407D01*
X032049Y022458D01*
X031983Y022485D01*
X031921D01*
X031913Y022485D01*
X031834Y022483D01*
X031747Y022545D01*
X031743Y022549D01*
X031735Y022557D01*
X031695Y022597D01*
X03163Y022624D01*
D02*
G37*
G36*
X021189Y020651D02*
X021119D01*
X021053Y020623D01*
X021003Y020573D01*
X020976Y020508D01*
Y020453D01*
X020672Y020149D01*
X019779D01*
X019736Y02014D01*
X0197Y020116D01*
X0197Y020116D01*
X019476Y019892D01*
X019408Y019898D01*
X019312Y019921D01*
X0193Y019939D01*
X019283Y019956D01*
Y019972D01*
X019266D01*
X019237Y019991D01*
X019198Y019998D01*
X018418D01*
X018379Y019991D01*
X018346Y019969D01*
X018046Y019669D01*
X018024Y019636D01*
X018016Y019597D01*
X018016Y019217D01*
X018024Y019178D01*
X018046Y019144D01*
X018096Y019094D01*
X018129Y019072D01*
X018168Y019065D01*
X018418D01*
X018457Y019072D01*
X01849Y019094D01*
X01855Y019154D01*
X018572Y019188D01*
X01858Y019227D01*
Y019464D01*
X01859Y019475D01*
X019208D01*
X019247Y019482D01*
X019269Y019497D01*
X019283D01*
Y019507D01*
X0193Y019524D01*
X019322Y019558D01*
X01933Y019597D01*
Y019622D01*
X019477D01*
X019477Y019622D01*
X01952Y019631D01*
X019556Y019655D01*
X019826Y019924D01*
X020718D01*
X020718Y019924D01*
X020761Y019933D01*
X020797Y019957D01*
X021134Y020294D01*
X021189D01*
X021255Y020321D01*
X021305Y020372D01*
X021332Y020437D01*
Y020508D01*
X021305Y020573D01*
X021255Y020623D01*
X021189Y020651D01*
D02*
G37*
G36*
X016992Y01954D02*
X016866D01*
X016742Y019515D01*
X016625Y019467D01*
X01652Y019396D01*
X01643Y019307D01*
X01636Y019202D01*
X016312Y019085D01*
X016287Y018961D01*
Y018834D01*
X016312Y01871D01*
X01636Y018593D01*
X01643Y018488D01*
X01652Y018399D01*
X016625Y018329D01*
X016742Y01828D01*
X016866Y018256D01*
X016992D01*
X017116Y01828D01*
X017233Y018329D01*
X017338Y018399D01*
X017428Y018488D01*
X017498Y018593D01*
X017547Y01871D01*
X017571Y018834D01*
Y018961D01*
X017547Y019085D01*
X017498Y019202D01*
X017428Y019307D01*
X017338Y019396D01*
X017233Y019467D01*
X017116Y019515D01*
X016992Y01954D01*
D02*
G37*
%LPD*%
G36*
X019238Y024407D02*
Y023947D01*
X019188Y023897D01*
X018488D01*
X018388Y023997D01*
Y024387D01*
X018478Y024477D01*
X019168D01*
X019238Y024407D01*
D02*
G37*
G36*
X026338Y023503D02*
Y023314D01*
X02629Y023267D01*
X025378Y023267D01*
X025328Y023217D01*
X025328Y020937D01*
X024878Y020487D01*
X023978D01*
X023918Y020547D01*
Y020967D01*
X023978Y021027D01*
X024838D01*
X025008Y021197D01*
Y023427D01*
X025128Y023547D01*
X025371D01*
X026295Y023547D01*
X026338Y023503D01*
D02*
G37*
G36*
X019228Y019867D02*
Y019597D01*
X019208Y019577D01*
X018548D01*
X018478Y019507D01*
Y019227D01*
X018418Y019167D01*
X018168D01*
X018118Y019217D01*
X018118Y019597D01*
X018418Y019897D01*
X019198D01*
X019228Y019867D01*
D02*
G37*
D11*
X019477Y019734D02*
X019779Y020037D01*
X018947Y019734D02*
X019477D01*
X019779Y020037D02*
X020718D01*
X018503Y019734D02*
X018947D01*
X020718Y020037D02*
X021154Y020472D01*
X018298Y019567D02*
X018335D01*
X018503Y019734D01*
X018901Y018704D02*
X019146D01*
X020005Y019563D01*
X021243D01*
X018898Y018701D02*
X018901Y018704D01*
X021858Y023607D02*
X024028D01*
X021508Y023957D02*
X021858Y023607D01*
X023478Y023277D02*
X024068D01*
X025878Y025087D01*
X030038D01*
X030638Y024487D01*
X024028Y023607D02*
X025698Y025277D01*
X032598Y024737D02*
X035758D01*
X025698Y025277D02*
X032058D01*
X032598Y024737D01*
X031534Y024228D02*
X039249D01*
X031526Y024219D02*
X031534Y024228D01*
X039249D02*
X039258Y024237D01*
X020978Y018377D02*
Y018997D01*
X032251Y01991D02*
X035111D01*
X035118Y019917D01*
X032244Y019903D02*
X032251Y01991D01*
X031873Y019672D02*
X034873D01*
X031868Y019677D02*
X031873Y019672D01*
X034873D02*
X034878Y019667D01*
D14*
X020408Y01883D02*
X020923Y019345D01*
X022337D01*
X027768Y022867D02*
X029638D01*
X025018Y020117D02*
X027768Y022867D01*
X023108Y020117D02*
X025018D01*
X023358Y019957D02*
X025118D01*
X027818Y022657D02*
X03D01*
X025118Y019957D02*
X027818Y022657D01*
X024968Y020317D02*
X027788Y023137D01*
X029458D01*
X022938Y020317D02*
X024968D01*
X03Y022657D02*
X030698Y023355D01*
X029638Y022867D02*
X030338Y023567D01*
X022398Y018997D02*
X023358Y019957D01*
X022337Y019345D02*
X023108Y020117D01*
X020978Y018997D02*
X022398D01*
X022555Y020699D02*
X022938Y020317D01*
X030338Y023567D02*
Y023577D01*
X031668Y020257D02*
X035758D01*
X031048Y020877D02*
X031668Y020257D01*
X031743Y020517D02*
X035968D01*
X030769Y02149D02*
X031743Y020517D01*
X031594Y021465D02*
X032249Y02081D01*
X032249D01*
X031594Y021465D02*
Y022446D01*
X032218Y018187D02*
X037808D01*
X031625Y018037D02*
X038188D01*
X038808Y018657D01*
X037808Y018187D02*
X038278Y018657D01*
X031621Y018017D02*
Y018032D01*
X031625Y018037D01*
X031708Y018697D02*
X032218Y018187D01*
X03137Y018268D02*
X031621Y018017D01*
X038808Y018657D02*
Y018657D01*
X030799Y018697D02*
X031708D01*
X03037Y018268D02*
X030799Y018697D01*
D21*
X03137Y018268D02*
D03*
D71*
X018528Y024337D02*
X018545Y02432D01*
X018865Y024065D02*
X018947D01*
X018783Y024147D02*
Y02417D01*
X018632Y02432D02*
X018783Y02417D01*
Y024147D02*
X018865Y024065D01*
X018545Y02432D02*
X018632D01*
X01853Y024065D02*
X018947D01*
X021938Y018007D02*
X023868D01*
X024065Y018203D01*
Y019173D01*
D72*
X025148Y021037D02*
Y023256D01*
X024748Y020637D02*
X025148Y021037D01*
X025166Y023274D02*
Y023289D01*
X025283Y023407D02*
X026188D01*
X025148Y023256D02*
X025166Y023274D01*
Y023289D02*
X025283Y023407D01*
X028464Y019173D02*
X02937Y018268D01*
X024065Y019173D02*
X028464D01*
X033088Y025147D02*
X039634D01*
X039751Y024703D02*
Y025029D01*
X032828Y025147D02*
X033088D01*
X039634D02*
X039751Y025029D01*
X024068Y020637D02*
X024748D01*
X039751Y024703D02*
X039758Y024697D01*
D73*
X031948Y021857D02*
X032564Y02124D01*
X031948Y021857D02*
Y022307D01*
D74*
X016348Y023354D02*
D03*
Y019953D02*
D03*
X017844D02*
D03*
Y023354D02*
D03*
D75*
X022047Y021654D02*
D03*
X022835D02*
D03*
D76*
X023622D02*
D03*
D77*
X024449D02*
D03*
X02122D02*
D03*
D78*
X027953D02*
D03*
X016929Y018898D02*
D03*
Y024409D02*
D03*
D79*
X02837Y018268D02*
D03*
X02937D02*
D03*
X03037D02*
D03*
D80*
X020418Y021917D02*
D03*
X019528D02*
D03*
X019518Y020177D02*
D03*
X019158Y020507D02*
D03*
X019728Y018827D02*
D03*
X021732Y022441D02*
D03*
X020984D02*
D03*
X017953Y024055D02*
D03*
X017992Y024606D02*
D03*
X018425Y025039D02*
D03*
X019016Y025118D02*
D03*
X02311Y024488D02*
D03*
X023386Y025118D02*
D03*
X022874D02*
D03*
X022362D02*
D03*
X019016Y02248D02*
D03*
X018898Y022874D02*
D03*
X017913Y018976D02*
D03*
X018268Y018622D02*
D03*
X017953Y01815D02*
D03*
X018583D02*
D03*
X019055D02*
D03*
X018528Y024337D02*
D03*
X018288Y019307D02*
D03*
X018298Y019567D02*
D03*
X021508Y023957D02*
D03*
X023478Y023277D02*
D03*
X025148Y022957D02*
D03*
X01853Y024065D02*
D03*
X020408Y01883D02*
D03*
X018898Y018701D02*
D03*
X030945Y024764D02*
D03*
X029291D02*
D03*
X02626Y021969D02*
D03*
X025148Y023247D02*
D03*
X026098Y022957D02*
D03*
X037756Y024567D02*
D03*
X038937D02*
D03*
X021938Y018007D02*
D03*
X029128Y019397D02*
D03*
X028338Y019557D02*
D03*
X031598Y019917D02*
D03*
X032648Y019397D02*
D03*
X035028Y018957D02*
D03*
X035468Y018667D02*
D03*
X036688Y018687D02*
D03*
X037028Y018657D02*
D03*
X032608Y020867D02*
D03*
X022238Y019607D02*
D03*
X023468Y020557D02*
D03*
X023458Y020947D02*
D03*
X031142Y019567D02*
D03*
X029658Y019427D02*
D03*
X034646Y019291D02*
D03*
X034055D02*
D03*
X035079Y02126D02*
D03*
X034252Y02122D02*
D03*
X036024Y021063D02*
D03*
Y021654D02*
D03*
Y022244D02*
D03*
Y022835D02*
D03*
X036417Y023228D02*
D03*
X037008D02*
D03*
X037598D02*
D03*
X038189D02*
D03*
X038583Y022835D02*
D03*
Y022244D02*
D03*
Y021654D02*
D03*
Y021063D02*
D03*
X038189Y020669D02*
D03*
X037598D02*
D03*
X037008D02*
D03*
X040276Y019094D02*
D03*
Y019685D02*
D03*
Y020276D02*
D03*
Y020866D02*
D03*
Y021457D02*
D03*
Y022047D02*
D03*
Y022638D02*
D03*
Y023228D02*
D03*
Y023819D02*
D03*
Y024409D02*
D03*
X03378Y023071D02*
D03*
Y023504D02*
D03*
Y023858D02*
D03*
X032717Y02378D02*
D03*
X027008Y022913D02*
D03*
X026575Y022283D02*
D03*
X028228Y020157D02*
D03*
X02689D02*
D03*
X030118Y019807D02*
D03*
X029213Y020315D02*
D03*
X030058Y020357D02*
D03*
X032638Y02185D02*
D03*
X032323Y022047D02*
D03*
X032638Y02252D02*
D03*
X032598Y022874D02*
D03*
X032362Y023307D02*
D03*
X030984Y024173D02*
D03*
X030472D02*
D03*
X029764Y024409D02*
D03*
X028346Y02437D02*
D03*
X027638Y024409D02*
D03*
X027008D02*
D03*
X025709D02*
D03*
X024528Y019528D02*
D03*
X022835Y018504D02*
D03*
X022402Y019843D02*
D03*
X022126D02*
D03*
X017008Y020551D02*
D03*
X016575Y020984D02*
D03*
X016378Y021457D02*
D03*
Y022008D02*
D03*
X016417Y022598D02*
D03*
X017008Y022717D02*
D03*
X018504Y020984D02*
D03*
X018661Y020591D02*
D03*
X018858Y020787D02*
D03*
X019134Y021063D02*
D03*
X023504Y01937D02*
D03*
X026969Y019567D02*
D03*
X025591Y019528D02*
D03*
X026142Y018819D02*
D03*
X025669D02*
D03*
X025512Y018032D02*
D03*
X026339D02*
D03*
X02752Y018071D02*
D03*
X024488Y018228D02*
D03*
Y018661D02*
D03*
X02374Y018504D02*
D03*
X023425D02*
D03*
X026188Y023407D02*
D03*
X033088Y025147D02*
D03*
X024068Y020897D02*
D03*
Y020637D02*
D03*
X024065Y019173D02*
D03*
X039258Y024237D02*
D03*
X030338Y023577D02*
D03*
X030698Y023355D02*
D03*
X029458Y023137D02*
D03*
X031948Y022307D02*
D03*
X032828Y025147D02*
D03*
X030638Y024487D02*
D03*
X035758Y024737D02*
D03*
X031526Y024219D02*
D03*
X032564Y02124D02*
D03*
X039758Y024397D02*
D03*
Y024697D02*
D03*
X022555Y020699D02*
D03*
X021154Y020472D02*
D03*
X020978Y018377D02*
D03*
Y018997D02*
D03*
X021358Y018457D02*
D03*
X035758Y020257D02*
D03*
X035968Y020517D02*
D03*
X035118Y019917D02*
D03*
X034878Y019667D02*
D03*
X031868Y019677D02*
D03*
X032244Y019903D02*
D03*
X038278Y018657D02*
D03*
X038808D02*
D03*
X031048Y020877D02*
D03*
X030769Y02149D02*
D03*
X021708Y018457D02*
D03*
X021243Y019563D02*
D03*
X032249Y02081D02*
D03*
X031594Y022446D02*
D03*
D81*
X018947Y019242D02*
D03*
Y019734D02*
D03*
Y023573D02*
D03*
Y024065D02*
D03*
D82*
X02003Y018238D02*
D03*
Y020738D02*
D03*
Y022569D02*
D03*
Y025069D02*
D03*
M02*
