M48
;Layer_Color=9474304
;FILE_FORMAT=2:4
INCH,LZ
;TYPE=PLATED
T1F00S00C0.0118
T3F00S00C0.0315
T4F00S00C0.0354
T5F00S00C0.0591
T6F00S00C0.0984
%
T01
X031598Y019917
X031868Y019677
X032244Y019903
X032648Y019397
X032608Y020867
X032249Y02081
X032564Y02124
X032638Y02185
X032323Y022047
X031948Y022307
X031594Y022446
X032638Y02252
X032598Y022874
X032362Y023307
X032717Y02378
X03378Y023858
Y023504
Y023071
X034252Y02122
X035079Y02126
X036024Y021063
Y021654
Y022244
Y022835
X036417Y023228
X037008
X037598
X038189
X038583Y022835
Y022244
Y021654
Y021063
X038189Y020669
X037598
X037008
X035968Y020517
X035758Y020257
X035118Y019917
X034878Y019667
X034646Y019291
X034055
X035028Y018957
X035468Y018667
X036688Y018687
X037028Y018657
X038278
X038808
X040276Y019094
Y019685
Y020276
Y020866
Y021457
Y022047
Y022638
Y023228
Y023819
Y024409
X039758Y024397
Y024697
X038937Y024567
X039258Y024237
X037756Y024567
X035758Y024737
X033088Y025147
X032828
X031526Y024219
X030984Y024173
X030472
X030638Y024487
X030945Y024764
X029764Y024409
X029291Y024764
X028346Y02437
X027638Y024409
X027008
X025709
X026188Y023407
X026098Y022957
X025148
Y023247
X023478Y023277
X02311Y024488
X022874Y025118
X023386
X022362
X021508Y023957
X021732Y022441
X020984
X020418Y021917
X019528
X019016Y02248
X018898Y022874
X01853Y024065
X018528Y024337
X017992Y024606
X017953Y024055
X018425Y025039
X019016Y025118
X019134Y021063
X018858Y020787
X018661Y020591
X018504Y020984
X019158Y020507
X019518Y020177
X019728Y018827
X020408Y01883
X020978Y018997
Y018377
X021358Y018457
X021708
X021938Y018007
X022835Y018504
X023425
X02374
X024488Y018661
Y018228
X025512Y018032
X026339
X026142Y018819
X025669
X025591Y019528
X024528
X024065Y019173
X023504Y01937
X023468Y020557
X023458Y020947
X024068Y020897
Y020637
X022555Y020699
X022402Y019843
X022126
X022238Y019607
X021243Y019563
X021154Y020472
X018298Y019567
X018288Y019307
X017913Y018976
X018268Y018622
X018898Y018701
X019055Y01815
X018583
X017953
X017008Y020551
X016575Y020984
X016378Y021457
Y022008
X016417Y022598
X017008Y022717
X02626Y021969
X026575Y022283
X027008Y022913
X029458Y023137
X030338Y023577
X030698Y023355
X030769Y02149
X031048Y020877
X031142Y019567
X030118Y019807
X030058Y020357
X029213Y020315
X029128Y019397
X029658Y019427
X028338Y019557
X028228Y020157
X02689
X026969Y019567
X02752Y018071
T03
X022047Y021654
X022835
X023622
T04
X03137Y018268
X03037
X02937
X02837
T05
X02122Y021654
X024449
T06
X016929Y018898
Y024409
X027953Y021654
M30
