G04*
G04 #@! TF.GenerationSoftware,Altium Limited,Altium Designer,21.0.9 (235)*
G04*
G04 Layer_Color=417716*
%FSTAX24Y24*%
%MOIN*%
G70*
G04*
G04 #@! TF.SameCoordinates,F3794B47-591B-43CD-9A24-B45F9C40A272*
G04*
G04*
G04 #@! TF.FilePolarity,Positive*
G04*
G01*
G75*
%ADD11C,0.0100*%
G36*
X019Y022387D02*
X018917D01*
X01878Y022771D01*
X018863D01*
X018957Y022486D01*
X019054Y022771D01*
X019138D01*
X019Y022387D01*
D02*
G37*
G36*
X018743D02*
X018666D01*
Y022771D01*
X018743D01*
Y022387D01*
D02*
G37*
G36*
X018591D02*
X018425D01*
X018415Y022387D01*
X018399D01*
X018392Y022388D01*
X018382D01*
X018378Y022388D01*
X018372D01*
X01837Y022389D01*
X018368D01*
X018357Y02239D01*
X018347Y022393D01*
X018338Y022396D01*
X01833Y022399D01*
X018324Y022402D01*
X018319Y022405D01*
X018317Y022407D01*
X018316Y022407D01*
X018308Y022413D01*
X018302Y02242D01*
X018296Y022426D01*
X018291Y022433D01*
X018287Y022438D01*
X018284Y022443D01*
X018283Y022445D01*
X018282Y022446D01*
X018278Y022456D01*
X018275Y022465D01*
X018273Y022474D01*
X018272Y022481D01*
X018271Y022488D01*
X01827Y022493D01*
Y022496D01*
Y022497D01*
Y022498D01*
X018271Y02251D01*
X018273Y022521D01*
X018276Y02253D01*
X018279Y022539D01*
X018283Y022546D01*
X018286Y022551D01*
X018288Y022554D01*
X018289Y022555D01*
X018297Y022564D01*
X018305Y022571D01*
X018314Y022577D01*
X018323Y022582D01*
X018331Y022586D01*
X018337Y022589D01*
X018339Y022589D01*
X018341Y02259D01*
X018342Y02259D01*
X018343D01*
X018334Y022595D01*
X018326Y0226D01*
X018319Y022606D01*
X018314Y022611D01*
X01831Y022616D01*
X018307Y02262D01*
X018304Y022623D01*
X018304Y022624D01*
X018299Y022633D01*
X018295Y022641D01*
X018293Y02265D01*
X018291Y022657D01*
X018289Y022664D01*
X018289Y022669D01*
Y022672D01*
Y022673D01*
Y022673D01*
X018289Y022682D01*
X018291Y022691D01*
X018293Y022698D01*
X018295Y022705D01*
X018297Y022711D01*
X018299Y022715D01*
X018301Y022717D01*
X018301Y022718D01*
X018306Y022726D01*
X018311Y022732D01*
X018316Y022737D01*
X01832Y022742D01*
X018324Y022746D01*
X018328Y022748D01*
X01833Y02275D01*
X018331Y022751D01*
X018337Y022755D01*
X018344Y022758D01*
X018351Y022761D01*
X018357Y022763D01*
X018363Y022765D01*
X018367Y022766D01*
X018369Y022767D01*
X01837D01*
X01838Y022768D01*
X01839Y022769D01*
X018402Y022769D01*
X018413Y02277D01*
X018423Y022771D01*
X018591D01*
Y022387D01*
D02*
G37*
G36*
X018528Y023579D02*
X018383D01*
Y023653D01*
X018528D01*
Y023579D01*
D02*
G37*
G36*
X018468Y01975D02*
X018568D01*
Y019681D01*
X018468D01*
Y019582D01*
X0184D01*
Y019681D01*
X018299D01*
Y01975D01*
X0184D01*
Y01985D01*
X018468D01*
Y01975D01*
D02*
G37*
G36*
X018508Y019209D02*
X018363D01*
Y019283D01*
X018508D01*
Y019209D01*
D02*
G37*
G36*
X018488Y02409D02*
X018588D01*
Y024021D01*
X018488D01*
Y023922D01*
X01842D01*
Y024021D01*
X018319D01*
Y02409D01*
X01842D01*
Y02419D01*
X018488D01*
Y02409D01*
D02*
G37*
G36*
X019108Y018047D02*
X018955D01*
X018947Y018047D01*
X018931D01*
X018925Y018048D01*
X018916D01*
X018912Y018048D01*
X018907D01*
X018905Y018049D01*
X018903D01*
X018893Y01805D01*
X018884Y018053D01*
X018875Y018055D01*
X018868Y018058D01*
X018863Y018061D01*
X018859Y018063D01*
X018856Y018065D01*
X018855Y018065D01*
X018848Y018071D01*
X018842Y018077D01*
X018837Y018083D01*
X018833Y018089D01*
X018829Y018094D01*
X018827Y018098D01*
X018825Y0181D01*
X018825Y018102D01*
X018821Y01811D01*
X018818Y018118D01*
X018816Y018126D01*
X018815Y018134D01*
X018814Y01814D01*
X018813Y018144D01*
Y018147D01*
Y018148D01*
Y018148D01*
X018814Y01816D01*
X018816Y01817D01*
X018819Y018178D01*
X018822Y018187D01*
X018825Y018193D01*
X018828Y018197D01*
X01883Y0182D01*
X018831Y018201D01*
X018838Y018209D01*
X018845Y018216D01*
X018854Y018222D01*
X018862Y018226D01*
X018869Y018229D01*
X018875Y018232D01*
X018877Y018232D01*
X018878Y018233D01*
X018879Y018233D01*
X01888D01*
X018872Y018238D01*
X018865Y018242D01*
X018859Y018248D01*
X018854Y018253D01*
X01885Y018257D01*
X018847Y018261D01*
X018845Y018263D01*
X018844Y018264D01*
X01884Y018273D01*
X018836Y01828D01*
X018834Y018288D01*
X018832Y018295D01*
X018831Y018301D01*
X018831Y018306D01*
Y018309D01*
Y018309D01*
Y01831D01*
X018831Y018318D01*
X018832Y018326D01*
X018834Y018333D01*
X018836Y018339D01*
X018838Y018344D01*
X01884Y018348D01*
X018841Y01835D01*
X018842Y018351D01*
X018846Y018358D01*
X01885Y018363D01*
X018855Y018368D01*
X018859Y018373D01*
X018863Y018376D01*
X018866Y018378D01*
X018868Y01838D01*
X018869Y01838D01*
X018875Y018385D01*
X018882Y018388D01*
X018888Y01839D01*
X018893Y018392D01*
X018898Y018394D01*
X018902Y018395D01*
X018904Y018395D01*
X018905D01*
X018914Y018396D01*
X018924Y018397D01*
X018934Y018398D01*
X018944Y018398D01*
X018953Y018399D01*
X019108D01*
Y018047D01*
D02*
G37*
G36*
X018789D02*
X018714D01*
X018685Y018126D01*
X018543D01*
X018513Y018047D01*
X018436D01*
X018577Y018399D01*
X018652D01*
X018789Y018047D01*
D02*
G37*
G36*
X018422Y018339D02*
X018318D01*
Y018047D01*
X018247D01*
Y018339D01*
X018143D01*
Y018399D01*
X018422D01*
Y018339D01*
D02*
G37*
G36*
X018815Y024902D02*
X018785Y024898D01*
X018782Y024902D01*
X018779Y024905D01*
X018776Y024908D01*
X018773Y024911D01*
X01877Y024913D01*
X018768Y024915D01*
X018766Y024915D01*
X018766Y024916D01*
X018761Y024918D01*
X018756Y02492D01*
X018752Y024921D01*
X018748Y024922D01*
X018744Y024922D01*
X018741Y024923D01*
X018734D01*
X018729Y024922D01*
X018722Y02492D01*
X018715Y024918D01*
X018709Y024915D01*
X018705Y024912D01*
X018701Y02491D01*
X018699Y024908D01*
X018699Y024907D01*
Y024907D01*
X018694Y024901D01*
X01869Y024894D01*
X018687Y024887D01*
X018685Y02488D01*
X018684Y024874D01*
X018684Y024871D01*
Y024869D01*
X018684Y024867D01*
Y024866D01*
Y024865D01*
Y024865D01*
Y02486D01*
X018684Y024855D01*
X018686Y024845D01*
X018689Y024838D01*
X018691Y024831D01*
X018694Y024826D01*
X018697Y024822D01*
X018698Y024821D01*
X018699Y02482D01*
X018699Y02482D01*
X018699Y024819D01*
X018702Y024816D01*
X018705Y024814D01*
X018712Y024809D01*
X018718Y024806D01*
X018725Y024804D01*
X01873Y024803D01*
X018734Y024803D01*
X018736Y024802D01*
X018738D01*
X018745Y024803D01*
X018751Y024804D01*
X018757Y024806D01*
X018761Y024808D01*
X018765Y02481D01*
X018768Y024812D01*
X01877Y024814D01*
X018771Y024814D01*
X018775Y024819D01*
X018779Y024825D01*
X018782Y024831D01*
X018784Y024837D01*
X018785Y024842D01*
X018786Y024846D01*
X018787Y024848D01*
X018787Y024849D01*
Y02485D01*
Y02485D01*
X01882Y024848D01*
X018819Y024842D01*
X018818Y024836D01*
X018815Y024826D01*
X018811Y024817D01*
X018809Y024813D01*
X018806Y02481D01*
X018805Y024806D01*
X018802Y024803D01*
X0188Y024801D01*
X018799Y024799D01*
X018797Y024798D01*
X018796Y024796D01*
X018796Y024796D01*
X018795Y024796D01*
X018791Y024792D01*
X018786Y024789D01*
X018782Y024787D01*
X018777Y024784D01*
X018768Y024781D01*
X018758Y024779D01*
X018754Y024778D01*
X01875Y024777D01*
X018747Y024777D01*
X018744Y024777D01*
X018741Y024776D01*
X018738D01*
X01873Y024777D01*
X018723Y024778D01*
X018716Y024779D01*
X018709Y024781D01*
X018704Y024784D01*
X018698Y024786D01*
X018693Y024789D01*
X018688Y024792D01*
X018684Y024795D01*
X018681Y024797D01*
X018678Y0248D01*
X018675Y024803D01*
X018673Y024804D01*
X018672Y024806D01*
X018671Y024807D01*
X018671Y024807D01*
X018667Y024812D01*
X018664Y024817D01*
X018661Y024822D01*
X018659Y024827D01*
X018655Y024837D01*
X018653Y024847D01*
X018652Y024851D01*
X018651Y024855D01*
X018651Y024858D01*
X018651Y024861D01*
X01865Y024864D01*
Y024866D01*
Y024867D01*
Y024867D01*
X018651Y024874D01*
X018651Y02488D01*
X018652Y024887D01*
X018654Y024892D01*
X018656Y024897D01*
X018658Y024902D01*
X01866Y024907D01*
X018662Y024911D01*
X018664Y024915D01*
X018666Y024918D01*
X018668Y024921D01*
X01867Y024923D01*
X018671Y024925D01*
X018672Y024926D01*
X018673Y024927D01*
X018674Y024927D01*
X018678Y024931D01*
X018682Y024935D01*
X018687Y024938D01*
X018692Y024941D01*
X018697Y024943D01*
X018702Y024945D01*
X018711Y024948D01*
X018715Y024949D01*
X018718Y024949D01*
X018722Y02495D01*
X018725Y02495D01*
X018727Y024951D01*
X018735D01*
X018739Y02495D01*
X018748Y024948D01*
X018756Y024945D01*
X018764Y024942D01*
X01877Y024939D01*
X018772Y024938D01*
X018775Y024937D01*
X018776Y024936D01*
X018778Y024935D01*
X018778Y024935D01*
X018779Y024934D01*
X018765Y025003D01*
X018662D01*
Y025033D01*
X01879D01*
X018815Y024902D01*
D02*
G37*
G36*
X019046Y024781D02*
X019012D01*
Y024885D01*
X018946D01*
X018937Y024885D01*
X018927Y024886D01*
X018919Y024887D01*
X018912Y024888D01*
X018905Y02489D01*
X018899Y024892D01*
X018893Y024894D01*
X018889Y024896D01*
X018884Y024898D01*
X018881Y0249D01*
X018878Y024902D01*
X018876Y024904D01*
X018874Y024905D01*
X018873Y024906D01*
X018872Y024907D01*
X018872Y024907D01*
X018868Y024912D01*
X018865Y024916D01*
X018862Y024921D01*
X018859Y024925D01*
X018857Y02493D01*
X018856Y024935D01*
X018853Y024943D01*
X018852Y024947D01*
X018852Y024951D01*
X018851Y024954D01*
X018851Y024957D01*
X01885Y024959D01*
Y024961D01*
Y024962D01*
Y024962D01*
X018851Y024969D01*
X018852Y024976D01*
X018853Y024982D01*
X018854Y024987D01*
X018856Y024992D01*
X018857Y024995D01*
X018858Y024997D01*
X018858Y024998D01*
X018861Y025003D01*
X018865Y025008D01*
X018868Y025012D01*
X018872Y025016D01*
X018874Y025018D01*
X018877Y02502D01*
X018878Y025022D01*
X018879Y025022D01*
X018884Y025025D01*
X018889Y025028D01*
X018894Y02503D01*
X018899Y025032D01*
X018904Y025033D01*
X018907Y025033D01*
X01891Y025034D01*
X01891D01*
X018916Y025035D01*
X018922Y025036D01*
X018929Y025036D01*
X018935Y025036D01*
X018941Y025037D01*
X019046D01*
Y024781D01*
D02*
G37*
G36*
X01879Y020759D02*
X018794Y020753D01*
X018799Y020747D01*
X018803Y020742D01*
X018808Y020737D01*
X018811Y020734D01*
X018813Y020733D01*
X018814Y020731D01*
X018814Y020731D01*
X018814Y020731D01*
X018822Y020724D01*
X01883Y020718D01*
X018837Y020713D01*
X018845Y020709D01*
X018851Y020706D01*
X018854Y020704D01*
X018856Y020703D01*
X018858Y020702D01*
X018859Y020701D01*
X01886Y020701D01*
X01886D01*
Y02067D01*
X018855Y020673D01*
X018849Y020675D01*
X018844Y020678D01*
X018838Y02068D01*
X018834Y020683D01*
X01883Y020684D01*
X018828Y020686D01*
X018828Y020686D01*
X018827D01*
X018821Y02069D01*
X018815Y020694D01*
X01881Y020698D01*
X018806Y020701D01*
X018802Y020704D01*
X0188Y020706D01*
X018798Y020708D01*
X018797Y020708D01*
Y020508D01*
X018766D01*
Y020765D01*
X018786D01*
X01879Y020759D01*
D02*
G37*
G36*
X01911Y020508D02*
X019076D01*
Y020612D01*
X019011D01*
X019001Y020612D01*
X018992Y020613D01*
X018984Y020614D01*
X018976Y020616D01*
X018969Y020617D01*
X018963Y020619D01*
X018958Y020621D01*
X018953Y020623D01*
X018949Y020625D01*
X018945Y020627D01*
X018942Y020629D01*
X01894Y020631D01*
X018938Y020632D01*
X018937Y020633D01*
X018936Y020634D01*
X018936Y020635D01*
X018932Y020639D01*
X018929Y020643D01*
X018926Y020648D01*
X018924Y020653D01*
X018921Y020657D01*
X01892Y020662D01*
X018917Y02067D01*
X018917Y020674D01*
X018916Y020678D01*
X018915Y020681D01*
X018915Y020684D01*
X018915Y020687D01*
Y020688D01*
Y020689D01*
Y02069D01*
X018915Y020697D01*
X018916Y020703D01*
X018917Y020709D01*
X018918Y020714D01*
X01892Y020719D01*
X018921Y020722D01*
X018922Y020724D01*
X018922Y020725D01*
X018925Y02073D01*
X018929Y020735D01*
X018932Y02074D01*
X018936Y020743D01*
X018939Y020745D01*
X018941Y020748D01*
X018942Y020749D01*
X018943Y020749D01*
X018948Y020752D01*
X018954Y020755D01*
X018959Y020757D01*
X018964Y020759D01*
X018968Y02076D01*
X018971Y020761D01*
X018974Y020761D01*
X018975D01*
X01898Y020762D01*
X018987Y020763D01*
X018993Y020763D01*
X018999Y020764D01*
X019005Y020764D01*
X01911D01*
Y020508D01*
D02*
G37*
%LPC*%
G36*
X018514Y022707D02*
X018437D01*
X01843Y022706D01*
X018416D01*
X018413Y022706D01*
X018407D01*
X018404Y022705D01*
X018404D01*
X018397Y022704D01*
X018391Y022702D01*
X018386Y0227D01*
X018382Y022698D01*
X018379Y022696D01*
X018376Y022693D01*
X018375Y022692D01*
X018374Y022692D01*
X018371Y022687D01*
X018369Y022682D01*
X018367Y022678D01*
X018365Y022673D01*
X018365Y022669D01*
X018364Y022666D01*
Y022663D01*
Y022663D01*
X018365Y022656D01*
X018366Y02265D01*
X018368Y022645D01*
X01837Y022641D01*
X018372Y022637D01*
X018374Y022635D01*
X018375Y022633D01*
X018376Y022632D01*
X01838Y022629D01*
X018385Y022626D01*
X01839Y022624D01*
X018395Y022622D01*
X0184Y02262D01*
X018404Y02262D01*
X018406Y022619D01*
X018409D01*
X018413Y022619D01*
X01843D01*
X018439Y022618D01*
X018514D01*
Y022707D01*
D02*
G37*
G36*
Y022554D02*
X018433D01*
X018425Y022554D01*
X018419Y022553D01*
X018412D01*
X018407Y022552D01*
X018402Y022552D01*
X018398Y022551D01*
X018394Y022551D01*
X018391Y02255D01*
X018387Y02255D01*
X018384Y022549D01*
X018383D01*
X018378Y022546D01*
X018373Y022544D01*
X018368Y022541D01*
X018365Y022537D01*
X018362Y022535D01*
X01836Y022533D01*
X018359Y022531D01*
X018359Y022531D01*
X018356Y022526D01*
X018354Y022521D01*
X018352Y022516D01*
X018351Y022511D01*
X01835Y022508D01*
X01835Y022504D01*
Y022502D01*
Y022501D01*
X01835Y022494D01*
X018352Y022488D01*
X018353Y022482D01*
X018355Y022478D01*
X018358Y022474D01*
X018359Y022471D01*
X01836Y022469D01*
X018361Y022469D01*
X018365Y022465D01*
X01837Y022461D01*
X018375Y022459D01*
X018379Y022456D01*
X018383Y022455D01*
X018387Y022454D01*
X018389Y022454D01*
X018389D01*
X018392Y022453D01*
X018395D01*
X018402Y022453D01*
X018411Y022452D01*
X01842D01*
X018428Y022451D01*
X018514D01*
Y022554D01*
D02*
G37*
G36*
X019037Y01834D02*
X018966D01*
X01896Y01834D01*
X018947D01*
X018944Y018339D01*
X018939D01*
X018937Y018339D01*
X018936D01*
X01893Y018338D01*
X018924Y018336D01*
X01892Y018334D01*
X018916Y018332D01*
X018913Y01833D01*
X018911Y018328D01*
X01891Y018327D01*
X018909Y018326D01*
X018906Y018322D01*
X018904Y018318D01*
X018902Y018314D01*
X018901Y01831D01*
X0189Y018306D01*
X0189Y018303D01*
Y018301D01*
Y0183D01*
X0189Y018294D01*
X018901Y018288D01*
X018903Y018284D01*
X018905Y01828D01*
X018907Y018276D01*
X018909Y018274D01*
X01891Y018273D01*
X018911Y018272D01*
X018915Y018268D01*
X018919Y018266D01*
X018924Y018264D01*
X018928Y018262D01*
X018933Y018261D01*
X018936Y01826D01*
X018938Y01826D01*
X018941D01*
X018944Y018259D01*
X01896D01*
X018969Y018259D01*
X019037D01*
Y01834D01*
D02*
G37*
G36*
Y0182D02*
X018963D01*
X018956Y0182D01*
X01895Y018199D01*
X018944D01*
X018939Y018199D01*
X018934Y018198D01*
X01893Y018198D01*
X018927Y018197D01*
X018924Y018197D01*
X01892Y018196D01*
X018918Y018195D01*
X018917D01*
X018912Y018193D01*
X018907Y018191D01*
X018903Y018188D01*
X0189Y018185D01*
X018898Y018183D01*
X018896Y018181D01*
X018895Y018179D01*
X018895Y018179D01*
X018892Y018174D01*
X01889Y01817D01*
X018889Y018166D01*
X018888Y018161D01*
X018887Y018158D01*
X018887Y018154D01*
Y018152D01*
Y018152D01*
X018887Y018145D01*
X018888Y018139D01*
X01889Y018134D01*
X018892Y01813D01*
X018894Y018126D01*
X018895Y018124D01*
X018896Y018122D01*
X018897Y018122D01*
X018901Y018118D01*
X018905Y018115D01*
X01891Y018113D01*
X018914Y018111D01*
X018917Y01811D01*
X01892Y018109D01*
X018922Y018108D01*
X018923D01*
X018925Y018108D01*
X018928D01*
X018934Y018107D01*
X018943Y018107D01*
X018951D01*
X018958Y018106D01*
X019037D01*
Y0182D01*
D02*
G37*
G36*
X018615Y018317D02*
X018566Y018186D01*
X018663D01*
X018615Y018317D01*
D02*
G37*
G36*
X019012Y025006D02*
X018938D01*
X018932Y025006D01*
X018926Y025006D01*
X018922Y025005D01*
X018919Y025005D01*
X018917Y025004D01*
X018915Y025004D01*
X018915D01*
X01891Y025002D01*
X018906Y025D01*
X018902Y024998D01*
X018899Y024995D01*
X018897Y024992D01*
X018895Y024991D01*
X018894Y024989D01*
X018893Y024989D01*
X018891Y024984D01*
X018889Y02498D01*
X018887Y024975D01*
X018886Y024971D01*
X018886Y024967D01*
X018885Y024964D01*
Y024962D01*
Y024962D01*
Y024961D01*
X018886Y024954D01*
X018887Y024947D01*
X01889Y024941D01*
X018892Y024936D01*
X018895Y024932D01*
X018897Y024929D01*
X018899Y024928D01*
X018899Y024927D01*
X018902Y024925D01*
X018905Y024923D01*
X018912Y02492D01*
X01892Y024918D01*
X018928Y024917D01*
X018935Y024916D01*
X018938Y024915D01*
X01894D01*
X018943Y024915D01*
X019012D01*
Y025006D01*
D02*
G37*
G36*
X019076Y020734D02*
X019003D01*
X018996Y020733D01*
X018991Y020733D01*
X018986Y020733D01*
X018983Y020732D01*
X018981Y020731D01*
X018979Y020731D01*
X018979D01*
X018974Y020729D01*
X01897Y020727D01*
X018967Y020725D01*
X018963Y020722D01*
X018961Y02072D01*
X018959Y020718D01*
X018958Y020716D01*
X018958Y020716D01*
X018955Y020711D01*
X018953Y020707D01*
X018951Y020702D01*
X018951Y020698D01*
X01895Y020694D01*
X01895Y020691D01*
Y020689D01*
Y020689D01*
Y020689D01*
X01895Y020681D01*
X018952Y020674D01*
X018954Y020668D01*
X018957Y020663D01*
X018959Y02066D01*
X018961Y020657D01*
X018963Y020655D01*
X018964Y020654D01*
X018966Y020652D01*
X018969Y02065D01*
X018977Y020647D01*
X018984Y020645D01*
X018992Y020644D01*
X018999Y020643D01*
X019002Y020643D01*
X019005D01*
X019007Y020642D01*
X019076D01*
Y020734D01*
D02*
G37*
%LPD*%
D11*
X019094Y018701D02*
X019331D01*
Y017992D02*
Y018701D01*
X019094D02*
Y018976D01*
Y02D02*
Y020276D01*
X019331D02*
Y020984D01*
X019094Y020276D02*
X019331D01*
X020512Y01874D02*
Y020236D01*
X019094Y023031D02*
X019331D01*
Y022323D02*
Y023031D01*
X019094D02*
Y023307D01*
Y024331D02*
Y024606D01*
X019331D02*
Y025315D01*
X019094Y024606D02*
X019331D01*
X020512Y023071D02*
Y024567D01*
M02*
